<mxfile host="app.diagrams.net" modified="2022-08-12T14:14:14.899Z" agent="5.0 (Macintosh)" etag="v84HrsHbkZ2qrFij6LKv" version="20.2.3" type="github">
  <diagram id="4LbFTo6VLYHeETDzajj4" name="Page-1">
    <mxGraphModel dx="1234" dy="820" grid="1" gridSize="10" guides="1" tooltips="1" connect="1" arrows="1" fold="1" page="1" pageScale="1" pageWidth="850" pageHeight="1100" math="0" shadow="0">
      <root>
        <mxCell id="0" />
        <mxCell id="1" parent="0" />
        <mxCell id="Gpy_rr_q-T0_uG4rBkW2-6" value="" style="group" vertex="1" connectable="0" parent="1">
          <mxGeometry x="215" y="80" width="295" height="320" as="geometry" />
        </mxCell>
        <mxCell id="Gpy_rr_q-T0_uG4rBkW2-3" value="&lt;div&gt;Applications&lt;/div&gt;&lt;div&gt;&lt;br&gt;&lt;/div&gt;&lt;div&gt;&lt;br&gt;&lt;/div&gt;&lt;div&gt;&lt;br&gt;&lt;/div&gt;&lt;div&gt;&lt;br&gt;&lt;/div&gt;&lt;div&gt;&lt;br&gt;&lt;/div&gt;&lt;div&gt;&lt;br&gt;&lt;/div&gt;&lt;div&gt;&lt;br&gt;&lt;/div&gt;&lt;div&gt;&lt;br&gt;&lt;/div&gt;&lt;div&gt;&lt;br&gt;&lt;/div&gt;&lt;div&gt;&lt;br&gt;&lt;/div&gt;&lt;div&gt;&lt;br&gt;&lt;/div&gt;&lt;div&gt;&lt;br&gt;&lt;/div&gt;" style="ellipse;whiteSpace=wrap;html=1;aspect=fixed;fillColor=#dae8fc;strokeColor=#6c8ebf;" vertex="1" parent="Gpy_rr_q-T0_uG4rBkW2-6">
          <mxGeometry width="295" height="295" as="geometry" />
        </mxCell>
        <mxCell id="Gpy_rr_q-T0_uG4rBkW2-4" value="" style="group" vertex="1" connectable="0" parent="Gpy_rr_q-T0_uG4rBkW2-6">
          <mxGeometry x="42.14285714285714" y="91.42857142857142" width="210.7142857142857" height="228.57142857142856" as="geometry" />
        </mxCell>
        <mxCell id="Gpy_rr_q-T0_uG4rBkW2-2" value="&lt;div&gt;Operating System&lt;/div&gt;&lt;div&gt;&lt;br&gt;&lt;/div&gt;&lt;div&gt;&lt;br&gt;&lt;/div&gt;&lt;div&gt;&lt;br&gt;&lt;/div&gt;&lt;div&gt;&lt;br&gt;&lt;/div&gt;&lt;div&gt;&lt;br&gt;&lt;/div&gt;&lt;div&gt;&lt;br&gt;&lt;/div&gt;" style="ellipse;whiteSpace=wrap;html=1;aspect=fixed;fillColor=#d5e8d4;strokeColor=#82b366;" vertex="1" parent="Gpy_rr_q-T0_uG4rBkW2-4">
          <mxGeometry width="210.7142857142857" height="210.7142857142857" as="geometry" />
        </mxCell>
        <mxCell id="Gpy_rr_q-T0_uG4rBkW2-1" value="Hardware" style="ellipse;whiteSpace=wrap;html=1;aspect=fixed;fillColor=#e1d5e7;strokeColor=#9673a6;" vertex="1" parent="Gpy_rr_q-T0_uG4rBkW2-4">
          <mxGeometry x="56.19047619047619" y="106.66666666666666" width="98.33333333333333" height="98.33333333333333" as="geometry" />
        </mxCell>
        <mxCell id="Gpy_rr_q-T0_uG4rBkW2-9" value="" style="group" vertex="1" connectable="0" parent="1">
          <mxGeometry x="440" y="30" width="248" height="170" as="geometry" />
        </mxCell>
        <mxCell id="Gpy_rr_q-T0_uG4rBkW2-7" value="Web Browser" style="swimlane;" vertex="1" parent="Gpy_rr_q-T0_uG4rBkW2-9">
          <mxGeometry width="248" height="170" as="geometry" />
        </mxCell>
        <mxCell id="Gpy_rr_q-T0_uG4rBkW2-8" value="" style="shape=image;verticalLabelPosition=bottom;labelBackgroundColor=default;verticalAlign=top;aspect=fixed;imageAspect=0;image=data:image/png,iVBORw0KGgoAAAANSUhEUgAAAVoAAADQCAYAAABGDal8AAAAAXNSR0IArs4c6QAAAHhlWElmTU0AKgAAAAgABAEaAAUAAAABAAAAPgEbAAUAAAABAAAARgEoAAMAAAABAAIAAIdpAAQAAAABAAAATgAAAAAAAACQAAAAAQAAAJAAAAABAAOgAQADAAAAAQABAACgAgAEAAAAAQAAAVqgAwAEAAAAAQAAANAAAAAAj/UtxAAAAAlwSFlzAAAWJQAAFiUBSVIk8AAAQABJREFUeAHs3eev3Vd6L/bF3snD3nsTm8QiqrfReMYejx04gJGLCyQvcg3cF3lzEQQJEgyC+P4Hua8CBAFi2Elg58bxwHeuZ+Ip0mhUSLGKTRR77/2w1zyfZ3NRW2cOxU7xHO41Q+19fmWVZz3r+9S1do8pk2beKq1yXxRAqJu3bpZy61khWY/Ss2fP0uO+et96qEWBFgW+Kwr0HjR46HfV9hNt9+bNAMTyrADiEx1qq/LuRIF7sewDStUeIYYJ43tV+yyS0FD1++aNm/F5K0YSY+nVUCzuNZ7Gu7fKzZuNJ3v29HaP74wOvU3C4yo3btwoPXo0JrZjndev3yi9ECnuP+lyM/px6eL5IPLNok8lCNyrd6/4r69B7NvXe/Xq1WDCZ0ZDfdKUadX/LFDAGsCXNwJALIfevXvf6VbPnr2wawNhmj89EZhx82aDn2+FZXXlytV4N56P0qdPnzC0AoyiwuvXr+cn/tbA4FCmemroCRZtN5Sb0rCyOrRniXkG4HUs165diz7fiDH0Lr1jHNVi9E7f/n3K9KmTSr9+fcvVK9fKjh17sh2gef36tazKmHOsTRXfiHcHDhlYRrcNyaunT58r589fTDrowbVrVwMHbpW+US8I/0YJErvXo1dcvws8Vlp/4734w3WlI871GjN6wl/mnfhPgxA9k1CkSMeH3TcgBG2+57qJnjx5UunTt0+5ejUGcbtBdXt+3rwX8vqlS5ey/trmk/jU3pUrl8uAAQPK4iWLy/jx48rpU6eTAU3i4MGDy/JXlpeLFy6WCxcu5Fj013t9+/bNMVoIqQnEdffq/fpdv+sE+8TcijrqM677uwH2DQb0nL894xPdrl29ls/1CCZ0v95z379etzUSdSm13vq352tf6/w0/+15/zq7Vuur9y16bTaPwzPedV0hqPoEnTzjHyHmvpJtBOvqR23Xde+611yv70q95rv2vafU6/mcOYhrAMN46z3Pasu1rlL0fcKECWXe/Lll9OjR5cSJkzmeAQMGlkmTp5WhQ9tKW9vI/Bw2bEQZOmRYaRs+Iv6NLFcuX4p1dDnuDSk//pM/Ln2CXtbdoUOHk27W3vz585OPT58+HRpgr/je7w5NnwSN0H7gwIFl4sQJ0ce2HMuVK1futOl+//79y/DhwwLszt/hFX3B76+99kr5F//iz8u5c+3l6NGjd+7TYyf07F3++M//tCx/dXkZNGhA2bRhS9ZP4CxYMK+MGzc2rg8qly5dvsOfuGrUjetlTv9e5eU/+VGZNXNa2bF9V7l48XL26fqtHmXea2+U6fNeLPsPHis9b1xJgZS0iZd7zQyaLe1Xbl2IHlwIvuqAw9oeMWJozMO14Lt8K/mvX79+ZfCQwaVvn74B5A0h0LgbfF2/IIYH3377zbJ161fl9Okzd0CoPgOEhgwZEozdsxw7dvwOId1/6aUXy5mzZ8uf/umPy9/+7f+dzFMX1pKli4NBrpRFixaWDRs3lvPt57/xbq3/cX6awBejT/v37Qsw61sWRtsrV6zMJl54YW5MeltZsHBB+fA3H+S14cOHx8TNL0OHDYtJu1R++c+/LCNHjgzmmVguX75c+gdon29vbxAwFjeABuQmGsHPnjmT93qHVO7Ro2cC6OFDh2JBjS9jxo4thw8fLm+88XrZsvnLBKZLFy+VQYMHlbFxb1/0EWBs+2pbWRKC4WK0j9YDo34gduDAodI7Fox+XLx4sUyZOjUW1qFcZFdjQvvFs4NjXk6ePFkmT5qUn4NCmFyORTlkyNDS3n4uGH1AzMHlBEiMeezYsaDB8DugOnTo0HIq3rdQ3DNffYMf0JHWRNO6Ed+1N2BA/6DNqBwTkBs5ckTQ42IuJsTUR7S5FJ/9+vcLTeRqjmlU0FMfEyTjOSCh3+3nzuU1IKtv2tVnyNoeNMeX+mEx94sF694NGlCM+2os6MlTJpeDBw+VQwcPJujmhD7D/zH+adOmBkBOLtdCK9u7d185E/yDlr1794m1tCjnHTgRLOiya9eeeG5/PNM7aWW+/vP/4l+Wv/nr/zN5Ze3adTmXb731ZtJe/cOCl7/88ssnTgna6OzZM5OXrwfAnW+/UD79dEWsgQa8wJa5c2fHWhlXPvjgw1wv+J3wRYP/9r/7b8q66P9f/tv/sfyr//Jf5/qLBVGGhlz/Hxa/Xr4IbfTE5atlP232NrJ5F55YJ2h39uy5UK4a4H413v2jS+fKj6aPLT89daqcPnCwXAm+TQEe71/r2a/0+/F/XebEWvlg/b8qw69sKbd69A4FIjB1RCl//G/+sNwceKtsXrel7P5f95QeNwJpb4MtkH39zTeC1/ZEu+fv0NacjhkzJoTc3HIh1vaKz1Ymz2ab8dQ3gNYCGh/AcCSkCrOG9KkP+nS/b2isGKCU43cawQg0M0DhE/DU94CtCe81vGcy0pAAgHNBFEz1JIv2TYBFq09nQnAAQEICmG7YsLEAXAAKwEaMGF5mzppZdu/aXY4G0NT+e39gAKIFPTEmBkFN7tGjR2IRNLS4IaFdAORLAWyDBg4q+/buzXq9M/eFFxIoXn55WbbzzrtvJyADj4sXL5RJkybHBI1OAeba3Llzsm00A1iN9vqV48dP5FimTJ2SczNr1qy4R0vslRPq+QExL8YM2I8eOVLGjR+fc3jt2vXQ4nuXc6HtDAiwMidVYKofKAK4E8ePx/tnE0TNsfYryJmva/E+AGfeHQseGTt2TBkVGtnpYGY0Vq/SN77jCcKeNtWvX/+U9Lh1dDAjLe5qmG7A3CKk3VkkZ0NQnz/fnvPT4LcBAaJT0koyf4QbjYGQDCIFkF/KdgkxWn+XKtH/EydOJNhUuum/+bgQdJ8a82xMNFRjnTdvbtm//+CdIaLbxQuXysJQFtD+b2/8+6B/j3I56Hgl3hkaAgx/VT6+8+IT+KLds2fbY15GxHzezHmMLmfRTwoFbR0PtbW1xdr5en1Zj/o/P7TTYcOGZn+9Y8w3e/csU/oNKm+d61/Obj1Sfr52TYDkzdL7duWEL96dM2dW2bhxcwjxUw2lIFre1qNX+e+XLC0Toz//1YeflLNDR5Q+t98bdPNi+d2/+7fl520zyqRTW8ut0JrvlGCjgf0Glj79+5Zhg4YFDzd8w+7fivU2fd7b5dKNtnLwwMrUZus4G+9/bf3eqe/2lx4L5i+zHrKQEggBeC6HKk6bai6YwAI0QN9r8X1SgNCU0CwsdBpxLep8afGLZXaAGK3nt7/9Xdb/JBmA5nXhQntO2tJlS1P7WbduXf6tr0uXLsmx9YzJWL16dS52wNA/tC99zImOAVgArlehQMMlfKpZgFaY+uzZMwkmKG9c6OfT+7RGGuGIeHf/vv236+yVps6gQQPj3XMBcgF+wYSp5QbgcXvQbGhz6hgaDEg4Abj+Acau62Ov6BtfE1OFFj46APt4WBre0Uf9JhTUzdz3SaslXMyLhewTTdSl38YAXF27FnRMt8XtcZn3SaGBqH/Xzp3J5DR4glW/1CVYcT2AnYC6EdqNBWY8XFH6pN/qB+zAFXjqo3tcOsbhXX0H9JWmPfQ12te2UukM6AGW59TxJPkqG34M/0GnqWGVjB03Jmh1o2zatCnW1LXQ2AeHojMlx4gXPRfDynHhIZrjoUP7QmM8l3z1J2E9sj5ojj/7D/+UY8ejc0OB8CItF1APDtdDpdtj6P5dq0jhEPO2Z8/eO/hgvikiM2fMSH7A73v27Iv5bcwjnnr//e+V9957q/z0pz/LPltzCmfcy1d6lP/0Wv/yea9r5T8MuBYu0waCo83ixS/lmsU369d/kUBbxwmd/pOL50pwXPn5wBi/CpsKzTi4qfTrwUFxWyq4Hy/2nd+39J7Wu1xaf6ncOhQT0PTysBHjy9lTh4O8jbXeVGViBV+yABw+bi7fAFo3LDDMejeG1UCwedxvrqbhg6MxkmgVmOoTNWrob4S4W931+Uf9NAkXzp9LYmTAQbsxsbVd9/Ux/dAhjV03Lv/qROlDY6yN3jTup6BtXGj6b32/Xqrt+Bs9Oyv1nfrpmebv9e9vvovod+Ri3qrvNH82v9M8Btfrc83P1O/uKfWd+ne9X++5n3SKrqTEv02/+lxQNK/f+fv2/Vpfrd/9jv3p+Het49uerfXWz+Z3ntXveLDyBmCpfW+snQY/Nsac/43/NNYd4aV4l6Cq/Ep41evqVtTrvsyi+lzeeEL/AZpK73BvNGOX+a59Ms6O+EAYWKeECe22uQBKo4F1fZsrjb8JdPyn/jrW5nfDkZBvCHd1Xho07Xjv1vVk7Gw0A2JND6QVyZK9vVaabt1ZN67V+az3e8yZ/eLdelGf6ZKfyZAxAZ0RpEsOqNXp54ACQOPbh5misJNF3ulbURlLIDMZOn2gdfFpUaDHihUr7zG1T6srj7edjhLl8dbeqq1FgS5CgVjdtL5WeboUqNo9HGJ59Ai1uzULT3cOWq21KNCiwHNEgXTxPGvjvRyR6BOR86ocicBOLa4fjb+PHjuRwYF6/X4+j0TAYHukx7RHIOt0RLa/2rEzvl+Ieq6Xrdt35PVdkWJzOiLu+yNN6GhE+GvZs/9A2R1BrPstgmOdFX3vKNOOR6qTcj4CcCajY5FK9aDlWORkKmi3beeue75+PoJRHYtEeH3qrNT6O7vXutaiQIsCDQrwO/tHs/XZlNfwbJDoVGQt/PqjT8ofvv9u+Yf/+Ivy4x9+PyLmEqL7l607dmWUnzE0IfJXgYEUq8ERtT8ZydmjI+I6MFLQRo8aWfZF7tyIyAoYHKkl23buKZMmjCtbtu0oZyNnU/qRVCipZlciYv7RZ5+XcWNHl72RPtN+4Xw65JdHRJPD7EikooyIzIGNX27N1Jl+EeHXluCCdk6GUGiLnEbfpeWs37SlzJs9q5yJdpgNUydNLGPi3q8++ri888ZrCeQi9EAXiLsvUkkQzJ01I3KRz2V9cmkPRdvuT4lEcM+aNJkAY0aNKlMnTyyr128owyOtC/iNGzMq8/cIih+8907WN6JtWPngk8/K4EjpEowQMMmtiEEzAKsf6HA+0oDQOAOEEWQB0rOmT7udz9snov+RRRFBw2UvLiwrVq+NtkaXYRFJPhf50HJ40YMvcEKklREe4yPta3x83xVpblMi7W1IzEGrtCjwPFOgKXHhMZFhz2el/Pp/LuXzvynl6u9rS9nKvtWlHFjfaYOS2AcNHFA+Wbm6zJ45vWyIBP8jkd8pBQg4XI5UoYmR+Lzpy6/KwACJE5HDuW7T5gDbQQmim7Zuy8V/4uTp8uX2nRmdlf4yMsBSIAEYy707Hjl3QyMnUwrRpMgdBjjACHCLVQIHGuXA6MuI2NECfGwgANaAd1jkKe6MNBVJ9PtjVw4gPHj4SBkV+bhfhpasr/oGlLaGBm3TxJoARulSch1HjRiR/wDuwcNHE4y3Rn+BF+16YuxmGxn5ouo5EHmiOyNlho8HkJ4Lzfxs7KI5Fpr32g0by/C2oWXH7r2p6Y+KzQOS4PtFvvOIeP9EjBPgA1lCwTjQVAHmR4O2NFg50oB9X9Q/Nvq8Z//+BHZa/tnbmwc8P2b0qAww6qu0tC3btic9CJv1MQ8Hghb6JipuHPr+JIvUqE8//TQ2LHydY/ok26t1H4k85c8++yzSFX9bfvOb38QGn4YVVu+3PhsU2B989MEHH5QtW7Y8cZJYS/jh17/+dW7oeeINPkADvf4ySmfPb968uezZsyc7fODAgdR2JLnfKRfCRF3zf5Wy9/NSToaJ2jaxlKNbS/nw3zW+71/VeFQy8OkwvYeOK+Xw5lK8B4zPH4t/YaKfi4X45S9L6R91DxqZUVcAMSwW7tTYWni2vb3MiORtoGizxPDIKXWN9gfwgNb4SIKfMmlCfJeoPTjBbeSItjJ7xrTcfXQ+wJQ7YML4sRmBZabTiAEQYAC0NEnXBgVwSpym7QE6Jv/5SIwHmO0BgnNnz0wwpdHRaveFFrzghdkBLLFvOjRlfR8dYKce/W+Lui7HrpalLy3M3N0JISRoju0BoJMnjg+QjO2Vt9sjBGjZE6Ofp6M/QFs/ABetdua0Kak5TrzdT3Xo+6RI+Pcs7VwfaMEAmjBZMHd2gvjmEEA2CYyNvFNgPG1K9C1oDIA9azzoMTE2OfQPoTYhgP5GgCUAnjF1cs4HYUb7JrQIIDnHlR4S5McGCBNY+u/Z6fGeuXlS5Re/+EX5x3/8x9gxtTfzoe08shkCyBMYhAxXDveQRYi2cn4JIgKLBUKASw3yDvcUoewdAhE9FDmX9Xsdy4YNGyJvfEr55S9/WT766KMyc+bM2Oo9Pm+zOtZu2BQKwdicu32xsw89WBOEt5xmQm1IXNPu9RDweEL7V8Od1ciZvV5WrFmX7ix8qE79vBS5zgSsU+QoJZ2lbVEeVqxYkTu1vFOLcTFja3oVhWBrbE1l+emH+tRP4SDUM/c5aKV/6kFD//QTDQ8dsbHpRiog3u9IIxjy93//95mbL19djr2NNgqB3ydyxQn6/rdzT3cG3hDedffXlq+2l+279yS9dseuOBYaRYorb0zwcPPY1Pmzn/2srFq1Kufi7/7u73ITkbxi5YtQLryHP81tHY81wjI+F5jCsoUxrDR8gBaeRTdrwRZhlh2amw/XKi2zkab/oIuCJizRr2eh6SFfEa4SzycCf6P0HRibgvuWsv7/LWXO+6V8+r8FiAZw9onrhwJQLwWgnthZyq6PG69t+adSTu0JNSok/5Cxpez4pJTFfxbZ2JEkfzZAd8CwUDdnpxuAK6AWkwwAlZmxrbBjYZbXQjNLjSsuADrFQJny3yxf1/Pem6/nrUkBLJ2VxYsW3LkM8JsLcJo1fWoyWvP1jt8JAaX2o7nPHZ+9199LFy2888ibr7x857svtOBaXmgas7lb8MKcXFBAvWOZE5bD/ZYKnITJ75UA+ykB8rXE/rD69bF/2jhi8VowixcvLr/61a+KTSkvxE48CwEIHA4wY4Vget8tbkILSFgg02LzxT9/8FH53ltvpMVAGFv0p0KLJ7BZNjbtzI+dR4Rgc8FXdqT5JKx81nI42v4qQGxY1MHaYaWcsPU4lhCrYEBsRtCXP/vRD8u2cBntDDD5wXtvl8NHjpU1GzYmn1MgCAp9EVswJgsWGJ4xhgDs7731egqP2q7PDz/8MIEG4EyfPr3sjI0l7777bj6ivk9XrUkFAE1sUHl12ZKMWdg2qk6gAkQIYYCqH9YSAYv/AR08QJ9TuduScB4XdO4fis03+YjGT9M/HmBKCLI83nvvvdz0hNZiCMYmd1Y7QHBPKC7WP/cYZcNuyyBbWolXY97M54RwTRGkze3Z+EK42CCk2GWo/dmzZ+ffxk5p2Lil4QLUBjwB5j4pHqxSdFkVlqdy4dLFMijaM2cEpTk2l9UVhlbvB+8QbKyaUdHn11577Ru8kBXFf+7qOqjSy2enQHsl9vmu+N9LWfYvS3n9L0JkBOAC0GEh1ScEGIyZW8ruTwPxwtQcMS3ANzo/IIgQWms5vS9OfYhJOXck3gmNZ0BsqdwdwHu7GFgFdlpBLa6RPvVeve4TgQCyMwEU0ghIP8likZv4Z71gEIukM5B91vt+t/4BSgsUOFS3AcCrhWZPEOIlmjZBQ3sRBKX5W8gWDK2EX54WOWv6tHT/uO7f0dhxBrBZVx2Lhf3Xf/3XhQuho1azK7QvlsGGWNTexa92VLIc7IjyPNeReTkZ7qUamNXewnlz88wQ/DskwAwouw+Ejh4/mddoX8ZVjwCsfXP+BWADaAQR4DkV9ds9phwLsAcq+sMlpE8EwckATBYJUEeD6bHDE21ZAKwSigK3E41QvXNnzQyBdS7vzwxFQ/xieGjFHQtrwS5G42TSNwsk9CaU24a1pTVJq07BFgJF/1iarLhxYRGJAZhDQW3AfDDmRN+bizbsEAPkzk8AeM3zYsOScVHEWILHI66xN+I43HDmxPt4Bl3NvVjR7OnT0kpuKA+xpT+An1XJKrL2vaOv3IesG+261lm5a3oXSWgbmRcBbTXL7lTSHpO37t+HBhsDnvfDUv6ff1PKj/6nQLzYHbIDwAZzvhga65f/X2itF0tZ8p+VsuEfGq9PfKkBrmcPlXLmYLgQQvud8Xop4xdkEGndhs1lZGhHNIlf/+7TDMIwKTDExi1f5iIhRZnVpIrBMqXsLsnFE59rvgjfZWhv8+fOSQ0GYzEJMBZms51zQJi/8fJts+6uMufOkFtfni0K0Fh+/vOfJ3/aDv3nf/7nZdq0adlJGhK+sG3VoraI8YqsEwCCp8UCBBL5/B2G4hmfp06fDffK8ASyqr11HDkN+qc//Wm6HoD9X/zFX6RmrU3KAD6kPWuPP5+bglZKi1s074VcV7QkwMG1xaKidVtvArlzZs4oFwNsLX7CnPY4ZvTI1IRZRHWRV8tN/5x8BVhTM43xAyNg47AT2pb6acVHQpus7ieAInhJmx4ZY+4b5rwxEECCzr3iLA3mMmsxA7+xpqxF2q7rzGkAzLoyvuayf//+8ld/9VcJ2gD3z/7sz8ry5cvzEYLE2LhS1I0+xrJ246YyN8bOhG+LQC83Cw3bvYuhdQPJHWEBvLRgXq7b5vbwA8FnvNxJNHlnkCi1fkBKm+ayOx3zbJ4IGe2ZNxYNbZkgdA3P6Cc+uhFnHcAQOLNyzdo8qOaPv/+95i7c+c5Fo6BJ4mgQlWb+aGXn78LpsqWUN/911NM5ot9vA4i6fefuDCS98/qrGfTif2wLwtAuNsfBNbb4IQhpRGrydZH6/KMkHyJt3vpVMgvzCMMCZTYIySYKfyACV4hMOv3xH3wvGfd++9h67tmhAG0WI/PNOljnaRX+RrGLqsEw02k29yqWW33nbs8CgydpKV2Mc0yY+o+jsCT9sw47KwDW6XSA3kl19yoEW0fAvtc7zfeBO63eWRJPkh+qf58rp7PyZIC2s5Ye8hqtdUuAqYlbMHdOOv5JUNoHDWHbrt2pefDdMJ0ECkg52oFJ4j7gX5IrSyp7B1CnyUB7CKmFkX1yrmP6119e+g0z4yG73nqtRYEWBVoUSAo880Crl4CQiq7Uk6doAiRdlfZMDn+TpvyyfCbMRZ/+5tzne5GGBLCZjwoTgJtBfUyCql3Uz3yo9Z8WBVoUaFHgESjQJYD2EcbXerVFgRYFWhT4zinAT16VQ66t3vwZ0JeT3I1nrdBQW6VFgRYFWhToSAGY9SwWOCoQKUBbS29pKgJGFYHrje/6U2f9c0D0wxYRVwnHNSOhWZAI2Tns2jXuB881Iq0P15pk9KjqiQgrLpJKj9o77SkdU3zq/fv9TPqEL7tZxGqPv/tupbP+dPas5/wUiwT0jvVl6g3a326H68bz5uJpldom2vqOovrTzCfNfanuJfcpAPlePOC68dWNDc1jbearRnsNPml+prmNzr5zgdmx2JyueLc+dvZ+87VGHxrnRlfecc0/Rb0PW3dzO75XPqnX1VuvPY42YFdz32s73/VnHVulqf70iMTeuP77C+FZ6Kx+yY17mGKQdv9I35FeMz5Os/eJwYEKppXd4CR7+/Hl6OWmheS3Rn5cg/UareuLOr2bn5jG3/HpmkRmATsAog0MVRdu/Z4X8j+Y+et61ZMlPlyv9ftUjEHdUlxcsaClqwFbKTDKnf7FPe9lH/Qv7nWsTyPqsIAPHIqfvIldbwl88ayDjWVwNOeO1rqjlVzw8hjl5MrtrPfq5+0B5PXzUY/sDrmg0yOPtxlc5DDykdtF5pyFC2Fe7dl3INLxZmd/jQnoop06naXQ3EYFNc9VMK/3b1MzBv41PZv75R2Fv/5QpEQNDR7z6f1psZtPNkp8bbQXz0ljcs8OP1OCVtK0ZBkYk1QnQVk/mChXVk5oQ8DfykyZupHEDwjali2G4Jq5yT7rjLkyztuf0prq3NncIAd47szpoRBdT54V7dY2uhgvAZG0yqq+risqVXvW7zu+V5+Efbmv3pVeZpefjBy7tWxGUJr78+08hViNPnhOP/Dmscj7tUkAvdRly/zR4OUh0TaNr5kfssEH/I+cXu3596wVNMAf+paug7rAnrWOmhj/7pY2cj/9HRlpXrtj8cqb/OCTFZGXOztzCe0CweyYLicp5gkgODXMAqlZDJ6RBQEM1CFxWtKyXULONZDreyySzB1Ag1m379qdjO/wla/iABzpZ0vju+RrbcljNB4WhG2wg+JnXkaPGpHbNS1ucyGZXrFN2DOjYqeLRe3wGG0Ap9wiHL/Fpb5r13clMOj75NiOK0dQPRKrZVbYESNVyPZkP3tTNbElixaUdRu35G6YyZEYXpleGpzth9vj7ARA518CfNBIHb7L6PjxD94v62NbI5AThLTwBTDtWrIjSv6ha86GsFnAFkhF34xfHqWAZUxALnZBTvmLgpx2IdkVtGThgsxDNWY01EfZJcb4xvJlZde+vSkUzBlav75sSc638xW0gx7yTy32zKOOsTn4Rj2jgu4rY4urVKc8mOf48RQ+gKzmZqObPNf+8Ztn+gVE8Y50wuuRS6ngL+PdHDuMfvT991JYALCPP1+T8wKEzQ066jdz15bpAyGspBnqt7xMFiXwA0DyRZcveTHpJ91RniplAG+g0/Y498KvC3jGPYL41fgBVDyHrrmRI3ZRBXFz84M5t21aHqwMHHOEphcvb8vt4rYI222Fr06dPpJ1oDN+p3wAZv0ihNADTzmsST8T4GMOAcvyJS/ls+4LPu+Neo3XxgOTDMzPhkJiZ95r8XNS+Nsaf9hiLT2rQNtxXLFOGhKhO37WZGTpYXNie6DDZ04E82BWzC2XEEM1wOJqag2bIrXMQpcndyqSzWm8mNlCp3HJ5f0ywGNsnJa1ev0XmWztoJvcrRNMjpktVMzvPSbfrvi0EA8Hwza28PltrMtly/btCXxA4Uz8uN2RYydicfVKTRywO5/AnngL43hoQtpWJwChZdGOtGOBWRB2IllQFvShSEDfFho7QWHcFgKgdsCNXwQFcsADyABOwA4UaE4OywGSaGCRope6LSzAZdcTjfJ6vG8RWkz+rVy7Pv39+jw+0uzQekYAPpoQUJLEaY4Om5G/THP6bPXaeDd+vjnAyZglidsBZZ+9+wQaALZA7VwyFpsKLl+90gDRAIA9QRMAcjLuy5lOARVC1g6t3OQSBxBpG/OvMmfxrp1BrgFpYDZn1sw8I8IJbgSH8QAa39FZ/d6nuRKaQJjQEd+Q8G4rthPbAI93jQP9nMvhRDMbZVgONHtbO9UnJ1wqIv40VgIBSNnkQMO3JrVp7oYOHZwCEP+YDxsNKp/ps/nEr8auvzRTFp3NDfLKHUokz3xf7B7TL3OAB50aNyGsPb9Hpx38hH8IdzxFmI4eFZsdgvcOh9XnunlYvX5jjtG8qoMQrhbI5+vWl1XrNmR/CXxbWz0zMfgWXaaG0NCO0h1xx5g6lm4daTJg2wcBKrcBc9fiGSe5Pcw84KHY5ACI6xF/ac6GoOVa2BWgsywOhDkXZrDtiMCGJMVoNFkLgQZDi6AN0iJpC45NtHgAlfQyTKxtAAZUAI7DX9wHbrRtWoD3aTY0HFoKgF80b24uXkBkoasfQNrhZiH7bgz6YEecRUyDYJ6qx5GKgJdL4JWoUx+M3z8uicZZDI1FDYTUt2nrV6HZXyxLFsV26hij8fSJjSIcJbTNATHWUXGNpgMIZ0Vf7NcH1qmRBiA724EQMQ/ymdHOjqSxsXAJhApGdibZdWOc3BJT8rCdRiDB88B8emiS+v/C7PiRzwAK4EYTB/xvxK4kbdKo/WO2EnA0TbQ1PrQAgLRSQqB/WAQEQD2wyPZQv3cHmC7FGORYO+fgUJys5heS0QkQOvSFoKu8Q4sDoMa2MWhmu6YNNczm+XNnxTux+yyAC52cqIZHvE9g6jdloPGbeqHtB48AcDyAjjcH38zxODiI8EMfeeKEP4Dzo5yAFT9SGNSLNtNjK6ijL19btiTo0jgak0BgteFF82FejJ9FRaOdHpq+MdqmiqeM3zblpdEnPJVWTwi/yQGS6nJg0oEAbQL65dCsgawxoafzQ4wFvZxapw94Drjq27BhQ3LddASj7vx3j3AoP7zu/gQpA8D8e1gf7ePomkVqcQKC5kKjsJCmxeJ/2AI8HMyC6Zl7tKNagIGF8zCF1m3hW4zNhWZosQPq+ykAnnlI47pXedj+0iT9vDkQfxqFFUPbI5SeZAE6tpU64exZKawXflTC7UGKsQBiygdAby54BN+yDBT05fd/WuVZ9tFyTxEwub5ZJy2g/X22AAAkcMfCZOS3vZ+C0LTYp1kAdkOj+7pdC4wG/DCF5tJxcT1MPfd6B11T8216kK+Ur/hBClAIzk5tqr7nGj8szfFhChcH9wGhY07vd/7vpy19M+77LdwSNMVHLawcygIQoEGzqh61POhYHrU973cloH10Cj8Oij2hOmgvTEuAR4thbjkRyUEYTE8aq0O9+be4FgAsv+j1cNYveGFuMrVrzDaBB/4zW4Bt2WXG0nbdZ2bxrzJV1S9goE7tAuxG4KGx2LVTD61wXgNfmaAac5HJyXzlcuAno9UCHOa697g2LA6uBaca0VIrmPMKOeic24CLxPicpevEJgd+OKhkeGizAjnO9nR2hBOYuA/Ohn+4HphBCuv/gP4DwhTcl+4J/liH8NBc+IOZ1wIzTFXuDiYjtwafIX83TY4pra+0oVkzpqULg8nO1+e64pO7w9mtzOwb4atlJn++7osMmDlvmCnLHylyqx/cEWhmjIIrdR5ZB4DQMYMvL34xNUoAQoP7YtOX6Xrwt0wJzwlCGQ9fLdoCUn0FQCwC80ZwcaEw919fviyDj96lxaEBnznBxnznDyWUgJhPAo4PFDDzr548dSZ4cGRqOTRBATJuAMKMG4XJz4Jjogtymld90WcBUf518+K6Ov1LP3nMi/bcQ8962pV55p/2/OmgH5rUwjXy209XpqXGr/zi/HlZnz4bO74y/prJUIUVbVU2CpeD8bOaHFqPhrJ6jJ1bDN1otw2XVG31+f7s1kBr+y1tBNCJegNG/lSMw9yVPYDp+bMsaGetAgvgwemP8YGxxYnx+JgArECD+8AEo2Jm7wPpRfPn5k/iWBgW8OHwxQIhQDY9jlLrPbl3LPwtCa4OL1enQAHtjXYB6AAPhheImBk+r/3hC6NZObS74WaI58LHCHByDBFl5wNl5ruWgBd9AoQWnwX7Rfij2wJUnQp1MhYeHzHftfM4+TcFpGh9hNGYAIRjx3emtvXr332S4GxR/1H8vBDtUzCQuS+Ixg9n4QIaz/BHCrowU/UVEP720xUJVm/Gs4IywF3wL/sWdBIM+vDjeCYWrnvmCe0JAv7BMxHkkcbkNDfgRngSTNo0v4I9nhF447f8bNXafMbPE/3BO29loMpPCfHTAjHuE0ElbQAZgUr3ZI3wU5pbmibhDMTefu3V6GscShfzROjhB/10cDYwfef1V1J4uq4/hKP5xzOE4vrNWxJ0HCcoC0U7hKgDydUvaElwADr0+s3HnyYvOAuVn3hb0BKt1G2uBoYQ1A+8Q7ASRDJY3FsTvIMfCTxgiM9l3zQXglx8gOA7GzzmACYnehkTv67gFZ4F3miEJ8yNNggtAJpjWbQg4xiDBw8s20IA9w4exsvqJ0C4Gx5EY2/uY3f73q2BFghhPpPtHwDC0AIctBJnaVq0JLXgA63G847N82sENBzPATA+N0CEsQGIRdgjAi7522SxcGm7QIe2qtBCMKQIOYbHrNpPEIn7NDlMbJHQAmg3gIWZ628ZCmOi/9XkxfgiuPohPaa6CByuAyQtBM8Cioy8Rz+lNOm/+/IyLXxgbqyeMw4LnhbpvoUiXQ140NKigykALEDATrOjvdNcCBwLyfsWvE8/gWNMNDSASPsZNGhAggS6AwjzQNshzNTPAtAfdWlDf4GNIMvE+J03oA44aLcS7N1HR+0o/jaPqf2FReA9bdFkJ93+xQNjNl/mDgChPYE2PPpXz1XdTUuOvwk8wM3KqBqk4Jr2cv6DLqwYYwCo+AVY6g4w9JznZ4Tgdc88oY/5B+Y7I23O+FgvtFXX8M7Z9vakqX7rq4AkuquTdeM74eB5v2OHBvjB2LSPx9RH40Ynz9Pya5xBpoC5q0Xf0GJaxBkAPO3VelHf1+NobCAR4MLbxsKqujOWoBmQ1b55xcPWE+VDX9XTKg0KPFc+WlIWMwI7nxawgmlpvRjDImKW+e45xXMWEkDGyBYTxlJoGQAIg1nsGZ1vqrvWgfktYvVqj1Z87nx7ujGYi66rm7Z9LBaeE/rfWP5yAmhz/7LR2/9Rt/cSdOJTvxXaLyADsD71v469frc4XAM66qiFxkmzr4Ec/a7A7hltpcl6G2RcA/4AQj1AWBsWrv5k3+IZ49ImjVipLXoWzdG/0rIjjev4vUtY1L+11TvoCNhqcQ8geNZGiOrnrS4Y7Si1DrQCOgBa/2rbjR4C86ArodBJUac0O+M0BmMhsNCh8ofXaN4EAk0/tdLb/at8hkZO9ddv56w2+h6C8XZfa9OeU3fSMLp2t34ZGzrpj1LnpLlPtc76adz4Keeo8lXcRNnm91iANHeCqNLM3HpG3/SRFaJvixcuqNU/kc+u5KN9roD2icx2q9IWBVoU+E4o0JWAttdPfvKTv/xOqHSfjZKwj1JS0whJW7U8dTHV+L7CzXVHg6Vp0HJpZ85GCPGc0pyEJrGZin5ITpCIpkiCS9GqASlSXhtMf2Y1E4zE91ya7rfr8be2UpMLjUi9rtV26VDapF3QXFJbCs3NM9XE825De8hu5nV/+6foh2e/CN8gLZxZX7Whvfvjd5HCX0yjdk+htdJA+XeZx55VaGzaNX5arGdEvfXfde1xP/BVu+612g/acvY5Pu9ciz7xtaIH4huH8QsAVhoxcavZScsyJ83tqbfW574+Ciyl9hy16ge6G1N9Ts6rwCCXyuWYH/RAW8+aP2PguxVc852fVz/1zQYPLhBtGU8t3q/04B/nv3XmMf96/T01dMR/fJ5bvtoR7zeO7eS/5cZIjTimDH09qy98ukxzz2b90aZ7dU6MJV0g0T+Fi2Zt/CIJ/qO9N+ahMX/ZR3XHc9wXeDPnE12j3srz6qEFexfN9Me7XBb4uI4Tj+Id7+IvrjPPV95VD7p715i5P7xb58H9x1maeeFx1vs46jJfeNfYreVu7aPF9HbkMBf942fih8N0mIyfEuNhFOYxZpUtgDD8fL7b+8+A8qwo7vjwQ9q88O4br8YW1s3JlH7qO31nsXMm6JvRbKaTXzG1zZJLgekIWEwAH6j2+cxEvzGzZyTDa5fPMvsX1y0evlaT5p4+LF20oAFY8bwzGkSB+VTl+wIdfzM77Vjzne9MIE0WBteAnyexUAQtBN1sygh+CNO1XwKOtoAO2ryy9KX4GfEt6WawO0sfDNICmj97dtkbv3CgvxagyLkkd+bvR5+tzHGhIf+hH9LzMyV9o25Ak2NG61iUmNHPDtkRBdz4F42f6S9if/78xfT/6uuK+AkRPmDPHDh4OMeJdsDzzLmzDZCMsQBu9PAjlcDTnPKHo+WkcNXwrQuEcRtsCD5RR26iCHqva9+c5x8gCuHKLaSgi/Mb0CAzVsKX/uqyxQlSMiXUtTF2oRkTsASa/KBo7edr8IMA5JAhsX012rPpxfyqHz8dPno8A1RA31kQ+FFb+MRGDsDcFsn+5hgtFPO59MUFjV9wjTnn8jkX/l48CzjRic8Uz+FRNDb/+JlfeGFk16C1IJYsDNfFJvjOT57EVxFsi/7xaQPgnKt4Dl+9GPOsDfMKzQUZCaj24BO84Bk7GgcPHJQBQ+8+r6UhFrvp6AELMBEomhyBKSD3VUSU7dChuWFkAHgqdmyJxluEtlIKEGAK1y1gGgqtRpDKQREXYwslv5eFbH+43UoWBlBR+OJolbmXPZgO+Fik/tGmLR6L0SEk7QEitqzmL3FOmtgQCNHf6bHzRmR4z74DuWAJCnvNaRO0vpvx/p79+3Ox0PoxNKFCk6hMTuMQ2JFxYRG1t1/Ivtihhi7G/lVkZmT6WIwPWNJcFUAg/YwWBBQtNIfDEEpoAoiNWZYBDVIABxAAFxqprADaFloqgnZ82UDWri2antQz/UjwjmdohuYFwNNWgPORAB991wbQSr9r0FHmhiCeftKcav0EHFrKAlEIUDQzn7IjnGNhXvkwgZy5BcD6T2ul9dpJ5z2admq/0Ve8Io0JT5kv76EjUAM2gnnrok/mLAEmgooEkLknlGxfbQDnsPDZHs5+94329R8NtKNNWiQwFPzUBqtpz34/19M4kMZcGAPQUwhUIKzI3kB7PGVuxQtoquhqdxthQ9gL0jrcRQYOIaQOwgBYytQhmAkU2ScEhr6gl6AYunrWO9YLPk7eDd7Eb/hB//URwLMgzOnzDLLmplv7aAEOYMNQjcBBI1jjO+a3AG1Nld/IlL4YYGAxMH8UqTEYGsgSxsDF35hXAAtT0wZoYxgLQ2f6WDC0smXb9vxVU0zfcCmcT2b/dNWakPCvpgloIWFEzKxdiz3NDuAQgRZMbfeUPgA6i5zpODBSbZj6NBaL0CfAsBAtngTHAGCRc+/YzsuloT0LyCKp4Kivjb4PTYA0RlrupNgKC9zR0cICnNqWjgSkjAtACOLQhFgK2jUWGiPtSr/U51kZGWgufcqPZqpD3wEtUAJaTiNDX6Dsn8X6wSefhfb5QgKvYAyBJfI+L9K9aFsElhxc5wMMjbYJVjRET1bM2gjOAAkgo07zDEgAkf4Ck6qxyRIh1Lzvuk/36kFA1e2h3+aUcLLtliAgPPBRpqMFw6AZgUz4OL9hctCzkY0xJAWgIJlnzD/61OwD9NCHXpGZcCFSD80NugA7KWWzZ0zL1EF00Id9YVVI3ZNHvXjB/OQZ7q9hQ4YmTQkt9esrq0Xgktb8ycrV5fvvvJlzZO70lVVFgTDepGPQEF0bGRmNQKLngCkN9k7gMZYMwYSvyGp8gncJXJo+ofG4S1fy0XZroH3cE/sg9VmgnUlxzEfzA0xPo2iPxkVLfJACHL/tHYJKvQ9TCBOgdz8FHQk0Wl+lZ2q3MR7Acz8FMACl+v79vPOsPvMgtPu2MaiHACUUa2lYMc5GuL+5qe99V59dCWi7BkUfcib50SzUzgoJ/iiFGakwlToWQEqrBHI03uZCU2Hm3k+hdTBV5Xo2FyBIU6UBdiw0Se4DJigzsGrhwAo4dlbUY5HRyGiI3APfBrLqALIWqmLR8hverci9zIjM7QfqQjY+PlDt0oTQrGMBjrTiZpCkYXYGskzjzuab1tj8fsc26t+0r1oqfwBpdfKNq//bCrrxMXdWuGTq+PAHrVehvd9PUbfTvmx2QLeOhdZL26WFyz02/ywY75nbWlg95gvNWSPNhXZvbvCXfywC1otAIksIPzcXtOE+4SZrLtqr40I7bSnqpLU/j+X+VIIuSplNsRNHsSOLj4yJxuQz8Q68fnnxojRZLVyAVv2LdRFz9ldAdcbpkEFh3od5hLH4J/m6rsRh0PvjngX28kuLklG5HGzdtA3SAsN0TNo8+i76w+R36pOFx1VhETsNi/uBmaXOZdE3JjbTzLGGzHwML7iDWdWBcefFqV+CGvzBfGtOaBJ82rhla5rU6zdtztOURLQdqu1IPQvBAvA+k3RD+HDfiWCMBUpLCGdoeWHWzIyC810DKTvIjFfAhjauDgsVgKOboIxn1Wu86rZwaZ8W9q49+3NsC+fNzR10ntuxe095+9Xl5fO16xNozRV3ACBxhqlNCjInJNJb0IJCAJBfkClLcPBVcwGg9cefr8739K2CBn+rrAgAA0i9JwcUSDDRHefHR21+jMvWYvMHqOrJYW9GHx3FaJ6Y7YJFTtLSPr8xX/OZM+ei3raYi/MJbo4e5BqYG3RUBJuYz1whzpLFb1OibwJ6f/pHP4h+fJHCTR8Ek6qfn5nPlMejgoLcMY6jFNgaGvyMHnhJNgI/MbBFb7TFM/zY+Izmao4IVS4JzxLCFAH041eWP41/CPY5M6cnrdCdMsHtYL65YqyJV5YsjiMu1wQfNDIZPG9NiVegLYF/Ldw5cpy5W/iP8QT3V26GSao8P//p1uldx08Ihg1JLeBsSHpal8VlBxSNjLS2Tz/QITVE3+3GohEyNQEW5qTlAeiz7edysWIiTNwzorfAD4jx/WF+Pkj+Rv5IWqEF7lhBvmD1WQRO0aKZ7AywxIQWgnYsLouTb9buNHUIsDlfQLIZvxhgpOEBE/vLHTx9OOq2AI1VXRaMwJhFK+WINgnE9dm22d05vl4JRnZEOSdUndFECIaSgL1yzfoUSIDJeGiFK9euS3ChyTrqECB6z24yi0cb+iqzICuL+tRvPP4GyvrAz4r+NLtF4Xs1FkcFTrgdUFK/7csAj3BE73Fx/q+gHtAxHtqWeeF7tNvKryXrp7oAlWwO25fRyzZiGjN/MwFoXtDSu9rKNLcATLR0FCQ6xJ8xtqHpz/XLBkBWn3638vN83lwBTZopOhAujpX0t3F8sXlr+vEdtk4TRD+CkzDMIzIjSCg4SUgRKgJehA8frqMLbQsmTE8ED/Nns4SMza8T4Fc0lbVAUDvMnGAQyKXZGqszIXIbcPB6+rSDT2Uq6PP42JqM3wgg80H40taBM6HKd+5IUBqxfhPseNi5BvjLrknzkNp79GV8tC8bhOARrxCcdT4I/tQX9Vkj6EwA5hw+BoxtpXc9BiI+jipoYBhUsWjrVle5kST6NNkF8T/Aa/FjGBoQwLLYaIl+fsNCkfpD+tNQRbkxJAZ2WAcAYXLREGigggjOcQV0QBuzqXNq9Ecq2MjhAzIwol+A+XAsAsED/cX4mJnknzl1amoSwIiroC4MDGvRA2NjonXokz5a9M5GWBDaq4Ad7cIvKQBMWhHgcUaqBa8NC/14pPHQeCz0+H8uBJomIQHgaDkA4P233sy21AVgARZNbe6s6al90lhobcakHZqRc0uNST8IDQtNFgEBI8CFjjRMWirAkApkPA5Wt2UXMM4KLZLmhqbe1Y5yaNXRmINeGXA0bltxATZA0kfP2upKC3slzg4GXOaLRoZ+/L7AN5E7/qvv+GDvvgOFFosmGTwLIUtIsmL+6HvvZsReNoc6nG8xdVLjlwfMsf6YC7SU/rfspRfjXZkHAoIDUljgySnxKwtXRl1NACNwbKdFT4qAefYLErIkHHAkeMfSEXxSP/AjqIYOHpLZGYTRtOBbqWVAbHYIBhq+wB7lYsnC+fk3wS5rAF2MCxieDk0crzjrQPYAPsNTNHt9cXi6+pTczdjeHgK4cSaD9YDvAerbr72SfG6s5pSl5cAmloJMDvyA1zq6K7Li5+A/rWDYczDJjzpEJrdUL4KluQBHrgGa4XdRzsaiB3bfVoABv2XNO/22Z90D2KwO1smjFBouTRyQA0YF+NIk9eVZABwKAmESuNhpCZkbLgW/LvH4MwY6bfABL3alYNhzAbQWDq2UFGduYHxS92ELM6sj6KjLQuqsXtpcXWyeY+LSSiV308Bo1Hx9nZXmOn2v/wDI/QCcsdfgU2f13+0aPzZfNfMwTeu7PdjhesfnWQCdjc0i5l+lxT1Kof3Ly6Xx1UIA0Ko7K8307Oz+4772oPR/2P7R8s1zZ/znHlcLE/5JF+usWpFPuq2uBLTd2kdLYl8Jf9K62KIoL5QG5CxWeY+VIZmkgM+zfpuL2cqfC0iBIz8p9wJzk0vAgRm2sYrm8otmHiwzLYDpP/7yN2kq5zvhQ+M3U7dAimIR8fXKo+X/Yqa5x91gwwGzkEYFfPi09EEAzRF/ToP62T//OgXF8TAHBS+Yvvxw/HIN94W84NhBFH0BjvyU+k0jBcx+10kwhKmqTRoX8x5Y2QHXyBst2W9H5wEJ7wnwaENg5uixE+k31XeH3xgTHx5arV6/IX/LyxgHhQtg644d6YvmQ+Zq0Odz4Zd0pi93gr6qB0AYqzEDBL4+AUfZGeo2VzJI9JPQ4pf0LF/hhx9/lhqifpgTgvTjlavSRQFg+CTllzJh+eD5qLlqmPfqRmugz8VjxxRT24YUQR6AXaPtaKOvysEjETAKOqIPtwQfp7bQSJ/5jtF3bbgOuF/ahsoNvhK+9KPZnjaIVfyBp6pQMOZ/+tVv8nfFbEJI4RwPopN38aa541cWuEQH/MFVwqfOHWauzTu3Q/qrg882b92e37kb3DMOct248a06xBoap5TJhAjFIOZDuzm/0V8aOvcb81/f0BovyZ21gUbdq2NtmCeCVV/xi7VAwWlWNNDwcZSWj/ZxUPEx1GHxCM7wfwrUiPTyIQEzPkqLw5mgwJYJRRLzpWEuzn8+O4thU/i+MMu48H9JdPezzNKS1m7YmFrpO+GfwtTALqPHsWAtBL4zGh7GtnlBBHjZS4vyN5OAIUYG4qLIzlIV1LHl0dZh/j6+Xf4xZ7fa4ukdkeqDEd0dlj7Q9gQcjO5wZ6BhZ9IXR7fkb0MJXmjb4jBG/lFj0w++6K8iGMiPV7MjjsVYmbT8hcbCX2nBAjcm+qerVicovvfma+mbBVbGib7OQR0X4CmDwCJ97eWl5VosWEAd2y5CQG3IuiwOWQSAhhktcCWTgg+UEDMGQAtU+WwFIO0Gc4Sl/o2Kd23x5S81fwAaiNveSoiqB0AKNioWvgXvLFsCgOBz/5e//V38fSmj67Yn4wkBKPPMl2pegClhhnbO9kUP4OoAdePAM/zMfL8yFxoCJo7VDN+m07i4H/jk+SdtmuAD5RdVn63F6OM33GpwyEHr2pQxIpi5OHyrAkvoYoziBQJ22mbN2MhBCAlAIajNBgJ/6I9ehANlwGYG9dlKPWBAv7SifvzD72d/V8e8EBACac4/lj1gHLIHZDIAdePxDFp//+03MwMFv6M/v/GJ8PE7DhPPCoyeiCwMtDEOQUMg7Tfxnufy5G2J75C6tDopQbY6YgiLGJPSoAR4XAMENEnagB/sw0wWDe2CxuA+gBKowsAY3vtSYjCbhQlQSXmLRnoNwPYOrdUiE+wRiALu6g2sS23AYqHNAIILFyKiHIvap2i3wA6GB0iYnvbloHALixbkHIOBAxt74S2E3fGgYJgFIWhB46PB6q+AFPBy38LRb+2KLMdQU7sREad10NBoRRa/ftO4R8cncKH5ACFBGKY6MATiwBgtfQJR468BIRqU9Lpde/em9mSM/fvHcYRBhHR9RPvGYjECQJoubRL4OxeARpiBwQApQkvaFJpb5MZJaJgzAiKzPmIuBTUJFFF0fRHcISyMn+ABeMDxUtQ/drTo+Y0ULH4hw896sy7Mk/7RTvUJL+izLdizpk+L/l5Jd5R21CnANC7oqY+sBMLH/KEL0PfepeAlaU6j4x1+WimDcozxKP4g3OzgA/oNusaOvwAv2jFa0GaNA4jqGz41NsJDwAwfAza0Qzdapp8R96x+4SX8ALwJLcHSBshOyzHoq7a1hybawhMCaLJmzAN6Tp4wLnlEf1gVDmiSSWMOBZC1Z3zWmvq1+byXbu2jrf4xmiATyWKxiDFtpiSNCO0nIqhKZ6YNULNYgIrv/qlHAdr+FiEGToq//WQJLSwXUmieNFWgxtRimmkH0Pl03UIF3K4BZ5/6+XWxPBpg6FltWASi/bMjGu9d12o/MbbUJdqgBaCfTDk0QA91EBiu+14LkFOvhaSvwFypbdbntENLUpeFZUsn0EnayiqIe81jqIvV+4SWk7G0U/2FrlnYDRrEts+gte+1mC9nU6SQjIWvP55PARkZBcbYoFB9o9FnfxkTP3AKz3iv1mGMaAag+MdZDhdDAFWXElppR6rdntAg335tec4XQaJ/3q1FP2jXfgW4tuM5PNbIsohfoIgx4BHXgZV3CAnR+9oXY660RlvPVD6o7+lXnSMuFgOvfm5jrQIIALK61Kf+WgiKqzG3+JmmT1tn8dGcK4E+O6QAAEAASURBVP8RnsaBR3z36W9ADVT1Sb2K++ZCe1XwAlwFhYA9S+y1pUtSEOWNx/ifruSj7dZA+xjntFVViwItCjxjFOhKQPu16vCMEfFxdIdE5bcThKEhMImrRkomk8RKvUb7UpjZtTQ/UyV5fd4z9XvjsJHGNkNaBw1DoYXUwjTkTqCxKN7VFjNOgOhO+/EuLYvGoDRfz7rjPeZo1VB97ggNV301UJcvxn88X9vLum73p/a7+VpzO/V946ftrFi9Nk1BwaHtYZLTcJRat3Foiw9SPa7TmgSg7CqrdECXO/869MWYK93UrY/86kxQRR2137XdrCuu86Uz8133z1zVuuqzdnTxW7ZKiwJPmwLd2ke7PhL1gYRFx5QHBIJcgle7IvBwLE5UEvASheYnEzBjzle/FR+lYA/zSfRaQMSWyo9WrExfpBOhBMQ4/rXjXUDKpBYY0K7/Mbfs/hH04k/lbuBPY3a9HIn0n6xak2btwQhY2HYqAsyft2TR/BQG/ImeBW78uXxvTuQCZEzZU6fD9A0fnWtAziefpRxOGQ4CRP7xHwvy8BMCHGegAkLv34igGJeB/vE3L120MEx4u6X23wa3cJME8H8W9TFLnZ4FwAiv999+I4NgzF995HcUobaBgz8w+xhCL90DMXZ0kQbEnNbPUyEInWZ2NAIpdq3xCQuUOXaPsGS6Oy4xMwOCxvyhQJlZDHyZzOZnSpyOdXl7JNHHM4KW3BPa5CceGb5MdPELxsbYKi0KPE0KdGuN1q4mjnh7/IESrYtGBFAFOyy43IoYIOlTRgKnPwCxSC1mzzgnAWhZ1DWdStaBwBKQdZ1v0jbNkZE14Di80Q5MDpAQzJBdACT47QAdkAEAgjeCS0BQ0EL0G7CJPAuGACH+PYEl/R8zOgJNAVx8du4r9pdLpbF1VP3qBphAm9+MIDFuu4KMOff+x3gBMiAU9RcEEgmX4YAODR8ukIvxR2BOuo9goCCHX1SV2aBvfJP8fIGb6bfky0NbmiXaEVRo4To60Ibt+LItmNBylgABdTXoJ9CmfxLk0SAqzHuCPYCUdjo9BNu02M0nZY2FAvAnRWAG4KKh/rJUzDEhoX0atuCQfjm0nZUA6FulRYGnSYFu7aOlmYoIW3ANzbYEAJzJLZMbtnyZYCpqLaJvW6rzOefPnZXaqKix4JTItfdppQDYJw2TxioaDZgAIY0KENVUKVrn5+u/yLMTgIEsBxF5WnUj2NQ361AfIKax+g6cASmAB3jutV84X2ZPn56aKLByHVACawGeDFrQ7uKaNrgVRJ8JB8IAgAFSmRJShGh4/rnv3FGRZkIGYF2NAA1XiwwJ9TurQBQfWBImByJARLjoA6EjoISGH3z8aQbnZFkIxinGA/CAssCSs3q1LygjnqR+GrF5AsjS2mj++izzwri8izaerUXOLyAXqa8pdMZD0Jhnm0C0pW3WA02cYCKsRoegaAuN2Py0StemQFfy0XZroP02NgJKzZkGtByLl1naHFX+tjrudY9mBaAepdCWgdqDFMIFGD7N8qhjRX/9JsBapUWB+6FAC2jvh0r3eMbC82/wUwaMe3SrdbtFgRYFnhEKdCWgbdlPzwjTtLrRokCLAt2XAi2g7b5z2xpZiwItCjwjFGgB7TMyEa1utCjQokD3pUALaLvv3LZG1qJAiwLPCAVaQPuMTESrGy0KtCjQfSnQAtruO7etkbUo0KLAM0KBFtA+IxPR6kaLAi0KdF8KtIC2+85ta2QtCrQo8IxQoAW0z8hEtLrRokCLAt2XAi2g7b5z2xpZiwItCjwjFGgB7TMyEa1utCjQokD3pcBzA7SO2XN2wsOUenD0w7zbeqdFgRYFWhR4sGOhuiC9/pe/+pv45c63yqatW/N3tPw6qzNbgadj+fxAnSMRHcPnBCpHHToD1m9ROeTa6VsO214074U42Lt3/Opt4/e56nmwXZAkrS63KNCiwFOmQLcGWmewfvL56jhntW8AZq/yf/zuH+IntnfFwdKNU/z93LYfT/Qz0gvmzomfV/4yTvN/JUD5qzI2zmf1w3J+Htx5qL/87cf5C5+OUHQw9R9+75349+5Tnq5Wcy0KtCjQFSnQrV0HfuPer7T67Xq/RDA/wHTr9p156LNfTfBrA0B09vTGr8n6eZdfffRx/hqAn/Z236/BAuBBcQi43/xyEPayFxfl4d9dccJbfW5RoEWBp0+Bbn3w9weffFYWBrjSQP2KwIn45QAa6uGjR/Nwb78q4N7sGdPTbbB+85ay6IW5CaLj/cJAaK9+8cAvEfh5bz/b4mBqv7zgZ8qXLFr49Ges1WKLAi0KJAW60nm03RpoW/zYokCLAt2XAl0JaLu166D7slhrZC0KtCjQlSjQAtquNFutvrYo0KJAl6RAC2i75LS1Ot2iQIsCXYkCLaDtSrPV6muLAi0KdEkKtIC2S05bq9MtCrQo0JUo0O2B9tTpM9+YjytXr5YbsR23Y7ka13fv3Z87xjreu9fftvaq146zbyv6ciN2pF2+cuXOY971nhzeBykdx/Ug79Zn9Vm5dPnyN/pU7z/Kpy3P91se5NmOdUq/U+6XhkeOHS/HT57qWE2nf9d5PXuu/Rv3m/nnwsWL5dq16zmvPjsWz3q/+Z2Oz3zb3x3nGe/YiHMtdjHeTzG3djyePnv2G4+j24NuSZdHfvDwkW/U0/rj/ijQrXeGtZ+/UH7+6w/Lj77/Xu4ImztzRrkV/zt4+Gi5HAy4ZNGCXHSHjhxNxt2xe0/Zsz92jY0amQvDM4MHDyrzZs8qa77YmGDav1+/vG/Byqe9GAvtytVrWe+EsWOCoc/lll51Tho/LvJwz+a23vYLF8rReOeH771dvtqxq7SfP5/5uf369Y2tvmuT6WdNn5Y72C7GFmBbfrdu3xH1lnIlFlf//v2zT9oHkPsOHCijRo4sLy9+sew/eKicjnb09XyMefTIEWXwoEG5482C9G9C5AVbJNOnTM7txpEinO957svYxDEx7l+/fqOMGT0yaTImaHAkco8XzpubdW3ftTvGeqkMMOZLl2K3XZ9y8vTp0qtXr+jHiHIiwMtW5pHx7+SpMzHGnWXurJk5TsJl1vSp+b585lEjRgTt+pd90W/jQfN5c2bHGM7Edue++U6v2BI9dszoBBX079WrZ9ny1fasXx1TJk3M8V25cjX6OKesWL0uwc7mE7sAGzScWzZ++VUZNGhg0rBXz15la/QL6KGDfiMwIDpz7lwZNnRoo79xf+zoUbn92rzbrj0neMc27StXr9zeGfhu0mntho1lRFtb8kLvoIUt3Yeif+YBf32yanVu6baN+4Wgh3tDYp7MF6DDa/qsn2hxPvjEJhoA+dLC+eV3Kz7PsXpuQNz3/rETJ/L9H//g/QTxPn16J097V5uA3Xc7Ik+ePpWbdXoG/Qb0H1BeXfpS8uOe2B15uO+xbEfd5hPPoh2Bob/44aUF83J+8Ovho8eTpycGX7fKg1Gg109+8pO/fLBXnu7TFt7Dlg2bv4wF1J7AQBoDCcy978DBcqb9XBk3ZkxsRNidO8Ewme24Ft2u2P115drVWFg9yvVguuFtw8rBI0dyk0P/fv3L7z77vPQJxqQZASSLdMjgweXLbdvLzGlTy+r1G8r4AF1gcyyesahsdsDEFvCqtesTMM61XygTx48tp0+fLSOGt5VzwcwbtmwtfXr3LiNGtJX9sZtN2zZaWOw7oq83b91M7Vc/0MbitFtNeztiU8XwYUPLFzHuAQHMQAUgHYq+G3OCcYCO8xw+/GRFnttg8UyNZwCK/u07eDB2xE2KsexIsGqL+oDx5q3bk15oM2TwwLIlxmrs6LAttjKPHT06N3X0KD3KidC40HpnPIueFinBYTxA8uKliwlWgMuYAY+NI2h+JmgF8ICHOSEs0e7SpSshEHaUAyEspgSYGaMNJ86eICROnzlX2gDlhfMBWltzLJMnTCiEJwHTL+hEQAFDfSUggLPt1/pxJOgAwOwENEZ0HRdAz9IYEcID/9Ak9Wn4sGE5z5u/3JbzqP7x48YUwnfnnn3lUPxNuI0bO7pcDSEcJCmjQ7h8Emdn3AwQbwilEQ3r5vKVAOphQd9tZff+/Tk3+6NP+joh6tSu/u3cvTeFza6wuvoGbQYOHFBmBa8RPhdCAKLfyOHDAySvJcgC6GMnTpU+AZiAm1IwaMDABE+8Zh6M99CRY+Vse3vZE+8TrNdv3EylAf/YTTlpwricV++fDD40j+49C4UVaku8f89agTPOSdE3a6Bba7RtsSD+5IffDybcdweUhg0dnMwDvEhtQEQjpLlhyBO9TyVo+g5kABxpPy00IFoW4vXuvSwW0NW8PzQAFuPRoOw6O37yZFk0f14ZE9rSsKFDQqM4EwugLcESYAFHmh4tQh0AgCYKgBWAre1hsQMNoF0IzYTGQzOmSVhMgB0IaBdIjR87NhcBAKI500IAwrw5s1LLpNUAHWauMxxonXNmTAsgGJPv0UzfWL6sXLpyuYwM7YzW5N2jx0+EgDmabY4bMyrNT1o64Hz5pRdTUwQCxgHInRfBJB0a4wZUQJ9Gro+ea4vrZ+NfjjHu02zPxliABvBi/qO5RU3IDQl6mSd1KehI8Ni1BxAJOuCKDg75GRM0tOSGBDDn+RYBSCNDYAFq7QNX/adhY/7Xli2JhVByTgkwtAUswJgFkOAU9QJRAhfIa992bJq0+aCVL5g7O8diDGipT4Bs6OAhCaIW24QQqISS+UEXvHH9+s3QrmMRxmFFaOR9277NLYAdFOM3Nu/TqO1onBO7GPGtg4/0gVZujvAoTdZzxvbmK8uTZtohLIxzZNAbDyv4jWZPYPfv3zd2QfZMmpowY3RPH/R5bMw9Afhi8DV+bZUHp0BrZ9iD0+y5eoOG1CuAAPDdrVwOrezGzRupjd3tmebrXDcjhg9LEGm+3vr+8BTggwXwD6Pd0aABL7DuSuVZ3xnG3UfAU5aeC6ClwVRJfj+MRItFoHuVx1nvzZu3fg/Maj/q5736cz/3O6urs2v3U9e9nuHLpRXeT2Fq3Q9I3O9zd2vzQd9vpk3z97vVf7frze3ejLE6R6Nj6YwHOj5zP3/z77KK8HDtc/28n/frMw/zTn23+bN57M3XH/X7swy0xnYmrDsxnLFhcXZr14GFzn+1P/yOQ4cMTbOQeSXowhzlR7S4mZ2Ykz+NyUe6M9nYoe4zjfn1auGTYzJWDWLalElptp0LXxcTjCvAQgIyV+PwGSYeP+mYUaND6xuQpis/rP7xrd4IvxizkGmrL8y1TREc0SduBuYlU5g/UuCFj48Lg3nn3Fyf6tCvmeFn1p6xCSDx/c2eOT1dERje+Kpvl5bK70kj5Sow5kvxnYnOH0k4WawCiJ7hk+VO4HpgVjJ30ZMrgDvBfQEUrooLFy+nv/f9t95INwZTn0lrjLdCqDDv+XMvhL+WGcwnezPGQHip/1i0IxjGBSKIaJwzp07N7Ih8JvpYTVt+zwwWhla9b//BMNPHZd+1JSjEfEZrPlQ+34aPdUoGLgXl3BsdgUVj/npMg9JPygf6ytLFZXPMx8WYjxlTp9wZPzDjCuAjlg0gQ4DrA03wxsngM7T0t8Ls5k/3jHaY7YJrPYJndu7Zm/7VhXGokXkxn56r/nl8aD7NLZ9uj5gX37mRqjaKVvrkaNA/ePetDHIK6OqzUpUHbin1tg0bEvQJIAh+RwPzwI2DRuaSC0lb6OgevzMXETcbXuLzR1vjVgf3lkCs4ObxoCX/8PTJk9MlZW65ObgxrD1j6+7ldLiRgO2ocNd1a6A14YI6QGnMqGvJzKQ0Ewl4AK9rAYQmn18MyFlsfJm0DmBowTuxSwCJj1UR8DgRvlhmNeYFukAEA6m/d4BGVB/MfCoZ0KI7cuxEgg9QHBCgw6+GSS30DDbFgvYSv96L4WPVj94Zad+WYM8H7HnBiC0xJoANiKObudj4is+db08fsfHwf1qEwH5mRPwViwNNLAy+6Rnhd+bnFI0XhLM40MYiBfR8gRakhantlWvWZ13Ah6kqaGXcgBEYvvfm6xl80pYgE39hI0C0N3236KM/5sPCnTJpQgZz+FbbA7iBFX/qF3GKGnqLfrtmHMDozNmNOQb9FSzi8wV0AEcWAb+q8Z2P+QP4l8PnrC19A3J8r4CE0CBgzAUAI8zMgSAmMMEHtEtzo/1bMafHYr57RruCp4BMXcAOYKKZdo1v81cRIAtf74rVa8PX2Va+inf1g4AkiAcNHJRZJ/2CttpYvGh+jlWgCS+tWv9F+vX5p9989eWkj/cpAfqFF1dH4JIfXrB3WADWmZgLwo4QTMEXNNQn8wkkncEM6PCLOvjCgTw+N3/fe+v1iGMcyCyXhq/8avnem2/kHBLMA0MAGx+eo7gsCqBdt2lLCsfPYpx4zdnNFJJXli7JevUDbYGxdWKt4TEAi+7Ofe7uxfircLu3fdyFqUEyKzQzDGVhGrzFRvJLx7JIqxlH0wMoFlG+Ewwh4DFpwvgA1tO5yC08BXgBLOAFHGgbAFS6lndoKohMa7PYBUA8k+kz0Rea7NRJk8reA4eS8SwMddKGffcp6CPQpc8CFBaGvtJ4at2AfUr0T4TaIqENExr6ZFHRqGi6gEk9hEdNYxoQQCKwY3w0dlrnhHHjso4EmBgbbU19wEl9BBPtEZjImKj9oHFqA9h4l/Yium28FhbgmxEaqQVOo9UXkXL9b6QT9c3np0+ZkvS6HPNyLTR5dVikUvMAH/CfHYE8QEzrA0AWr+wF/QM4MSkxQw1B2tDSBiYI03QBPQ2/f8xTI/g1PgKF43N8AMh8yhyh7QFCQIWmhA1tbfLExhnGtG2Bs2mhsRkD4GwIW1pqI1AqpU2f0RyfGfvN0LqB88ioa9LE8UHbMfk32s+YOjn7ZE7Mp/eCTKFtXs450l+0dR/go+vVqFf/8DNaAMPxUSeewwP6LEhKsTCP5tqcXbx8KZ9FqZqpgK+9L6/5etCec4Ppy4dLmNZgJbprz5jwNb417+bcGsOH5mnu7Jl53b3GnIU1F3Xj47o2tfk8lG7to8VAFqxF4BMTMZEsNouBqUxCS5eR1lIDPphUlJlWawFYuDQdQGwhYkBAgelJcdFhzCN9BsCqVzsAOx5PJudSkMtoUVqQ+qAuGgPQdd0C8DxApn3oB8D3nP7WyLC681mAFaALiLSij9mvAEXMzRy3+I5GGo9FBsAxurqNxd8Wsc+GuUoLvJp9kyI1JwFJ1LukmU4IpcYUQEFr1IbFRsCoE8jpK9CjYfuuPecCTwwAnz93di7WGwG6fQPo5OVKm5P6ZCFbwPpBi6YR0uhogurWlvmIYeYzwODjFasSiOUfm2OAY04qLW1A2X/oUHnn9VcTzNWhP0AAnSx2fUfnxt/nk5boZtDMbsVcqRfNG3N6K/kGP3nPP2NlhsvZvRCfwDTHH/OqHnUonnHPJ0GXmnG8b06BFy35WswZoPNOQ1O8FlkhS7MdrhBarXmQlmU8zkvWh4bGPDC/62tzn9Gk9pW18UVol28FfYE5bR6I4mU0JPj0a+PWrYUrw7zkuIP4BE9D2Pe8MxbjjMozd5iwU7Tdcc7wp7Qzbhq8oO1HKc+6j3bPnj3lbFgb8+bNez6CYY8yma13H50CFqJF/rjLveqN5Z9C8XG3+zTru9cYn2ZfHkdbj3M8XQlou7XrAGPwU/FD0iJpMKSqyf620vG+d/k9OxZaguv1+fpJ8zoUwS0J4fyZtNbOCr9XLfxsgjyK9wUW/ISOQpuV66vQYPgsa1v8cjSU+nc+dPs/R4+Fzy60HtoF019/BTgErhTaEY03NcXb79QPZn3HOn/v7/pwfLqnn80mYUcyq1PAhiujY2nug34q9bO22/ETeBuDdmu5805caIZ279LeaY61dKzP9Xqt4zOd3Wt+pvk93+vfdVz+1jeaaL3nE/3r3Nb6bADBc4ox+r4q/Me0ToXfs9bh7+bvzX9rD7/QivHJ/Rbr5VRsoumsCIbh09rm15+Np/1dr7lSv9d5YWXujTqet/JounsXoNb+WNTbduws77/9RoKNScb8EvS37diVwRqO+R2h5teocXvs2LIgJaozwficBED4tzDM0kULknkbJrcgzblcBHxiljfmtsqZTnsDTAVpRMiZ70DxyPHj5d0wZ5m1hwN4tKFftlTajSOrwA4nJpaE/pVrvwgT/UoGUZjMkuvHxD0mNTcFM14QRqCMabc3tucKGB2NdvgZ+XoFdCxUCx2zv/bykhzLjt1b8vobLy/L95jtTFP1EQTGzu88LfzJG8KdIKiyfMmL5aMwAfvH77GNHmXTQXsKhobf7kqa5miMVtVv+OqyJTHWY+lGQWeBQruS0HT29GlpUtqZJ7CyftPm7AN3jDoJFuasvjCpLV4BRkG0T1etyQh5muLhBuASefmlReXDT1eEq2hgBiOBDF+tOeEzl/PrOX1DC/O2fMlLGawBzsCtArK5xCvrNm5ObgcyAJt7gXuJ64YQwwvqIETQzZxyCTHnuQAIA3OItuaNz9d2bW4i/bR1V1HX52vX5/U9+w7kBgZ+alkJMgCMQMDMdl7126atLQJuemQXTIjdaAJUNqgQ1gKqAq/7g79mz5wR5n24daJtY7BBJYiZrhMbTd6KTQ6CnIJWgwUjwx/PHSTmYLccWuAv9XFjyajhb+cCEczjksHzeP2VoIV5WrNhU/rQbXgYPWpkrjH0tRvxeSrdXqPlT8KQ/Kd8h4DnXAADhj4ei11UHHDZfoiZZRRIObK4MTrQw+gWBuDAPJiUXw8oeX/UyOEZTLL4ZSPwZZ6JLaF8kBaQ9+2J5786Ghq2dyxyfUgtNvroHYs/o/zxnV/MLiGahYCWxan/Aj/asSDsVLKYEhziv8CLz9F2WVF1C1hEXdRdQENgCzALTNiabFurIBWQounbxbY9tvEKtAA/vlN9lZIk2GUxHTx8OPtsoQG9TVu33fYNNzTQXHRRDzobtyCb4Js2qgaaKVsBfjW4B3DQW1vGlTvGAqAAq4wOASNCir8cqPOD7grt2D2+YKBIiPAv2/mVWmQYLeZr9fqNmXHgPjBErBxv0F9Kkn+AkF/VfAg6NqyExpbrYdEH9ZtvmSB7I32M35wWKtAHWASuxgbA6Ts6Cj4JsLFk0Fnmi3kJ1sn3q79WmiFgxn9Vg90eW4YBv/MwACjtcmCcUSCrwvx6Hj/rE0AntLL/IZTwAbr7RyvGN0APDwBhVtM28xttCIYdDKGO//CiuSGA7GzTf/zS8Mf2zO3ZBAb6oRELydhPRt/4m7/YtCV95IQWfufrZUlJb9Om7b0CZsAaffHI81a6dTDMZNIIAaNFyvluUVtUIsKAChi+MHtmI7AQoINb07wLZhVEkoM4Pha57AALF2OKDmNEWhbwBF6iurTIFWvWlnEBLrRYz1ostAhnHpDyzGegKYpuEQAYRfoRMMesBwLMBI/Ui6H9cm9b29BkcoAsgEc7kvJU8xEtOIe6iPwCLO0K8vWKMRuveo4eP5lakeBHrKt8BlC3x6LwA5XoRPMiTDIwE88AXovJfYuXBoYmxoGe9t4vmj83XTQ13YvWDYz0DejRIo1FKpbxASc04MLQX0ChbrmbouTGS/sBMqLa2kd7YPDp52vK1MhbBsYAe2w8pz19B1BVYO2Ifg8c2D/rtV0YQGXknGYZ//SHtqZexbvqAyKYQO6yvgEbAgv45uE+0XfCCT0BVFsAB2Gub67hCd/j/9knghqPbA3gFBRjPRGmsh5YIvqh/sa/AQmmsguAOheBfhEyNFa8QjN3Tb9poZ71j0VEaAAx5yLouzpc0xZey+BqjAfi4yEKBavJfLC0ZocAJvz2hDDRJsFBcFkj3iWICU/PANP9Bw/nnAF+QkDg0jojjKQP0oAJQ5o4OgFpVhYBan08aulKPtpuD7SPMpkYnQR+kGIRA6nmYpFUoG++3hW+c4sAL+DRWSGU3H9aRZYDV8b9FAsdoBMs33UBRARK1Wa/6/48jvYfZC4eR3sd6+hKQNvtXQcdJ8ffzLs0Lzu72XQNyNLASG/Fd9rMtxUgS5PFhArNg3ZXU1mYdR0LLQVg3a18272O7wCWWmimzcXftDLa3/0WWundQBZdOoJexzZpRTS45kI7ZGl8W+lsftCuY3vq6NimazRT/W4mAQ2aZmdOvEMza2iw3oi5an64cem+/6vebys08I4gSyMlmL+t0EprIFZfKy82v5PabWib+LpjORa0Fph9EqXjXHQ2D0+i3a5YZ7cOhjV8bYfTnGL+MFdETdNkjEV1KfxcfErMSiYWpmZ6AVOgamst05G5WnceedZWTLtjLC6BJ37IoWGGyjKwhZUJJqglIo4ZBd3s9uKC+M3Hn2V+KnBdEDmK6lu3cVMGdvTPmaOCZfIZ58yYEb7W7ek3dmoTRma66x+fI5OPpgxAXNNHbTLxPMtsVWe6KmbNSNN4R5iVfIICZ2gigGHjxMYvHa04IE1GdOADdL8es6ct4AiMmPLz4/xYPmNHRi6MuhwSwzQUHf/xH7xfDh+L4/dCeOgbMBH8E2AjiASWfvDu20lvAqhBt8YZvPyOaMPk5F7hbtCeueQn/MPvvZv+Z+4IZqz5EaiUZxremwTPPpFXTINkDsdjGdixY4mpe/7ihXBzxG64eE9AS1ARgNlW6qhIZjna2u7LFSAwJHDDjdFwbYzMfnjG3HGXaMNWZ+fmVuD0Lr9rw6XTOBJRMj+3zsTw36IxfzeXDDrhjQTrEA5OA5Otgvb8n3/wzlvp70Vb/lPAyl/u9DUujmGxvRyYckMQLgtfmJP8Q8yuj/f50gV40ZLfHW3wuzFx1dgco5+E4oTYIMP/PH/unKDD1bIrYhbGTVhSPPRfG9wV5labXDL4jdsMXxEM+Ipgqdt/uyI4Ps4+d+vzaD+MRHkLC+Bgkk1bv8pMAmAjIIZBLFJBACDg07mkdvzwQVYNRFDDdlWLi0OfSwGjCipYPCvXrEv/6vrYOmoh8LV+vHJVgpYAG38ZpuTLwqgWo2g1Tdf5r7RGh2VjdkBzIABBGR5+WSddMdqdLQsQ+DKZxBYbAF0VqTuKRWqBCeZpY9Ag2yUvZuDHOI8ea5xRYLE5CnHP/v0ZUOoZgDMmMgcEtW4EADtT16IB1hYLwAUo+jYkxkWjQge+UcEn/lH3XRe4synDDjD18O/yXxIaIt2CcsCb/9hCRnN/85UDm3rsoPmqO5TQD8jarQXkBXjQCC3QyTkHXDNAjp/yd7GJAYiJtgNSQMD/DRzQzJkT/KECikBfJoWD2wGHOdGXUcNHpC8RbQgPmzcIU/0gUPcGEBHYCl5AZ1F6oEyItcdYCAG+ysYJTj0SvGxzBajGzfd8Nfy55gUPGadns65wdRC2BI5+L4h53Rh188ETBq75Z1zOdvCsvwlbAIzPCGBFvYJY2jR+tJs3e2bSijCT7ke5wNcsnW2xXRev8qs6P9hxn5viXbsoZTMITBIgjgPVpnkD3HiRxQHwbafGgxQJQcAnVfBcpcWTauNR6nXOAQtydPBOt9Zo7T4BEEC2BlQ2xWHN0rZoMo1gR2xHjMUuXcaiAXqAyUIBEKT99Ah+WYyuOVdUbi6NhTYsorr0xUWZ8mKHjsOoMR0gxrCCAjQx9dIKLWiqF81XfQDySGh/JD9gsxhExT1rUdP4RNlpXJhW5oB+7QyQV/fyJYsTGGlitDTBDd/96xeaHTcGGtg9VQN3IuICF7IumLTqQyP9ORvaiGeBpL4yR1kA+uIZIO8awBfJBgYOCrdVE8jSmOyOs9DRwD+BFP2x62mg6wE2doCpj9Yp4EJjcpaAaxYyetHC9MGZsoIzaSEEOKKNBaZfzG90AFAEZI8ei4O+jbpFvC1+Ghmw8V7dMgtUBbP8QgVgMHYlBUbUyToAyMBY3wUN8QuBIagFwI1fXwkGcy7tjxbJZ+0+ntM2PnCIDg1UOtvAqLdxbu2QtDhold6pYPfqsiENd1P0Gf0IKwFWQVIpZNKuzJ92nf1LsOMRqVaEGH7TdoMfGtr0K2MXJ43QVdCPEoHW5l/GDQBFX4AqSFf5AjDT7gmvJQsXZJASDwjM0bpnh/WGxt41R/iXIoFmhGWrNCjwXAXDLEYAAoAz1ecJcQFpDogx65MomJnGaYE+zkJLtKBo5fcqgAWYtMrjo4BsC4Kd4HnWCx4k5J4Uj9/P+LtSMOy5Atr7mbwn/QwGVWgetTCJaS2dFWY87e1hCk2jnt/wIO9rk8uARtdcXFfu1h9jax5X87u+A3JapXK3MbseKvqdeprHn63Hvbu1nxU3/af53abLT/zrvejwuDpwt/Hd7bp29U1aYGWp2le8civcHubvbvT9tnof15gepJ6uBLTd2kfLv8Yxz6RVzoZJxdSVkM/kkl8qUCC31u9YMXG5DxxQgvGYixjvbJiW1R+EGRVmZyN4UdIv5mQmvkt5q9wJfHjMZz4sJp+fK2FyC5LxbzHrHNRB+90eZji/GhNfe7kJIRYDDXxtBI5oOO4xU/ULYNmhdTlMdEE7x+YxaxuJ8f1znEDS72rRPJmW3qeB6oOghwVm3E6XopnQ8PXL82u+2JTuDKYgM1RfbQeGgcxWrhbmpTY8z/Tm5+MDVw9fn/E7LjLrDS2Zqcm/yEXCp+cYxrqRYeeePfm++ToZ95jQAFkfgWv9MUvtcTF4TqAIPYgg9OBuscmDu0BfzIW5JzD4pX2iLR8md4CxK/y7O8KPSdCpRy40sx7tBauGDBqcu6/4T9WBhu4Zi+MDuYDywJUgjj7ITZXHatxMbPmq6vUefmFWCzLhQ3PR6GPsgIvxmhefCM2y6BNWUfJstMEdg+f4YfUD3TOvNj7Rwz11C7yiG4Hluja4LoCnH4x00A63QtIs/kZrPCBQyI8Lgb0j9xa9FH11GIw5QStuCzEO7fPPcwk5ylEOMR+1OeCPbtA8DruJdgRxzR2Xxd2APBt7gP/UNfm46nuApu/r0efGR4tx+FP5ryykkwGcQAcDCAIAVwtLZkDv3n3iuxOQzsf21KXJrKKoTsbC/MDBtkY+qR3hHxUYwdAmmR9xe8/d4ecbnkwsyCCtxi6cPgFSfGHHYrMABvRdG371lP8VQKrHwlm5dl0uJIs6qs3Fqa8YStDLiVcAk0AAsD4FdSww2oZAD5CwICxy1+3+EeVXh62kFphgoGcIgk8iaOddu9L4Wi1K4Kqfv/j1hxnsAhLuGyeQ2Ry+OcEf/k2BQkGgP/r+u0HPy7EDblPSgG+Pf1GQzSI0fsEugodAEDgT3UYD45UO529nuPJhCybyecv8AFyOZORH9C7weW0Zn+OlnAd+XoEvQogv06/62s7Ll+p5PmjAB+D4ddduOB9jaUthgU7uow/QAC7GC8Q9yw9vF5o2FW6nrdt2pk/yNx9/mtcIDP5z73vXvAB3gHUp+uhYTr8n9/m62Fob9ffBawGiDV+/gJ3MkYYw8Bx+QKeVIYT5OfEfQLcBBTD72/wZMwF/5tzZrBdfmSfZIMbluw0CbUMbxxb6TnDYpbV6zYYcq2Cs99DOHABegPzWq8vv+K3NpSwS45CpY9uzZ/h7gbkAon7aTu583DGjRoagNZfDQkjuTPeCDT4E5exo2+/vPW/la/u1G46c5BYMosFgPr5HQFPPhhVJlv40K1Js/DIBxgS6wA3g0B4UO8EAy+jYaivyC0RpmQIYtL6lLy7MBT8qFi9Ap2VZDNqXvkMjFCygPQNmbQiq0GKBnP6J4PtHE7NrbXAcEO0eEKDVCfgAB4tYQAzTAy5/8wfTqvjLtG+RaQe42LFmQbonawAQ0HYAQdYfbQN7wSDaOiAQrJLkr25gmYGsGJTfDotXE3ClPMnSAMp1C6lxABBAISio/kaa040crwVYXRmsBtqNbAL1AxBzpS7zgLbmzNhFwNHMWHwCGeAgFUlqmADTyMgUQM+lLy3MyLrv6GCxO+4RuAATAIoe6hU8kto2deLEBFIZFPrswHKAQRBpS1aAOTUu9DUG4zTHk8Zruy21OT9+iJ+ADi5QP7BlqgvQEYrnA3hVph987NL20EBwzhwAL2CPFuZPwA3/ALjcOhz8MT62+5oXGiTh6jug9pz3FQqE8ZuHyXHuLU3e+KP7ms/n8KRdWsZFuCXP5rzbRXgi60cPSoaUM9YXHiAoBPQUc0gI6os+I6z+j465VvCQsQrEzg4lJZ/JO8/Xf7q1jxaoplYXEpe5A/gAUP1HGldt17QzPZl+tN4Eo1jMGMniBryYpmo7vnMzADzM6LR72ghmZ4oDKhoV8HHWrXxHUXUAI22IRqAuoF61S2CTYB/PWA7uWRjqAvq+A2LfgQXmBmTMRsBkvKmZhJlpARk7DdTY9dUzFh/NkztjRNvwXLTu0d7OnY9odbSlIYtRAcja5x6wiI01AScWkwVFE6RtccU4uAawuOandLRl/Nk2AIh30Ye21siwAHexMKO9CnKZDhR/c0+gi+fcU6e5UL8xyYJQl0WsH+q0mPWXNrV44fxGndEn9xVAAbwzPzfob14JMuORhoOuwBWQEDroRwszD3Xc6ITOeEd7wI+gMF80ZnPhOm0b6gi+Ano0BGx4AG2NqfJOpbW+0TjNKculIeBi2/GqtTn3Ly2YH282LB2VSG0zl1xj+sc6ULip1I/nEhDjHr4xHjQE4GjoHeNjHZkJ8+CaOvEmHkM7NMbvxm1eZFBwuxEo6mSRmB/0Q1O0QUfzj5ZSLCkWUXn2z7w9jtKVfLTdGmjrZJKiNLUnVTAn8G6VFgWeBAVa/NU5VbsS0D459OmcNk/1KvMSkz4IyDKTbA4goe2cYULdqwBZUlwAgybBZ+h3mgQwOhb94dOUynNbwHd8pKExhfbwKEVgSj+09yCFpsI1wl9Hg+lYaDD8yZ0V9OZn9czdivvNhcmbmQbNF+M7LYqW6v69Cq3SphFWRd1I0PxO9a82X7vbd7/4wIVTiwAOmnRWKn91du9hrtH81dmxGJ+dZzReLoC7FRolrbm5eAfNWTrusdoUubQ0zubiuc74hTZMq3+Ugpe+jS8epe6u8G633rAAJO3WYr7yo9rOCHaAKCZjBjIn33n9lfDrCQr4hdyz6Q91KtXWHTvCPLtVpk2dlD8vwqzHrN5rmIE98+zTj1euTreEbIHcShnMzcQCWIrgWjXrMC03BHP+nz/8KNwUg8uVuMakE+nlDsDsmBJz8yOLxDOjLThbeX0XHHMikt+Mt8C4BQRqRMNzp0/sEGP28aVyZaifSbg8Aljqdc95sGfbGz9MuT/MbX41wS0BIADj3FG/T8V3yBetHteZmACQz5V/l3AiZLTBBNdPQRXBM3R6+7XljcyB+A4oCACmKDeApPv0hwZtLcY2xxKGWQvs9FNf1MGlgL51w4AA1IvzX0j6ukeeyEH1A4tAxPi4Ed6OoM6OXXszQs5EZtbbkGIHoPHaLMJ3qv+vxq/d2s21OTa12FyAFum+CBOaMDA+c0Ow/v/tnVl7XMeRpqP2BfsOEtRCarEkW7blRW61uvtxP71d9PQv8k3/jbmdm/kJczfPPOMZe2ba7rZsi6JESqRIgARJ7EDtVcB8bxYPWAABVAFVFAtVkRJYVWfJjPzOOd+JjIyMAFc8F1g1xov8Zx/9KHhSRENyiO0Txfxl0hPcuN4MmZGBe4D7D/MCM/60wXeG29h1mc3/REuKuRfpC7P+0XCdlW/vaTk11xLT76hMDeDD3AHy/d9//0Ow4SMj98p///X/DliwihE7PaEZsUOQLodJ259qsc3tu3fDdaE9VtdF9zfmDuzB//HHz0P7xPltxmW+Gtr43Wd/DOYk7gVMDZi+6FvTlMLLsmkjX5ibCfGbSTyK1wqmC67PJ3ou+ByGMtC9DGvz9Qbn5sJeCnlhR0RT4mGDlIKNUzcHxzDhxQ3K6hjskdg5STDHQ8l2bmhscNygkWaGWYJJGhYQQC6QBQ8NkxucE7QyNOuWu0mbQ4HwuZkhUmagcXlCE4VgICS8AFjKCiHgIoO2zM3MA8HD+41cbbBVQnQUtvOw7u0VA0GxwoslkTz0aErBTUzn8UJB89uQhwL5u9AEkY/ZYyaRIA5i7GK7HB2VS5XIkAcJEkNm+oc9EhyYaccOST8hBQgSogDfh481iy/7IXIzOqBNbLdJPWhombxwOI72sBXi3kTcXsgWEofgcZUDo0e6BnxCULyMcEVDFgoEhr0TwgIzHl48TtjO9XkMmep6Qka8kHCn4/w7Ihg8GSBDiBSSoI6F+dkQfBsbKxN+vLCRk75yfXB1o73N7S3Jg+P+tlU0ogEnAr0H3J7Zi+/evx/slJwLiYET9wmTlyx9pp9sZ2KM8+8tL4c+QciQPwRdVj8hdgqTUnhBcJ2r1bqW5n4RVmjxAmTiDxyDMqHzud9J1Dg/Mxu8Me7dXw7YhTblbcD1otAOLz/s4dhbI08BPDbwFgCbMOGm+5++4vbGteIFtaPVexAr9wLYMiGMDPSF7bc1ssN1LBfcH5WBQ/chL2K8Q4aFZMF4oG20TCjw0DMM/p60AG5ovnNTo1ExrGJSin08TJAbRMMEGYWHhgcxaF4iM5a0QqoQFzPPPCzM/EM0PNQ8yLSHBg3J8rBEmh8PKjcWGhHuUUyKsVyWBxktCo2RcyhNDUeTcrpxeYD+j4bFuJbhLYF8vBxw0YI8uGEZ7nJzo/0S8BvyZeKPBy1oxiJGHkLIMrq5WdOOhkMmBzRPSBpceLAIOE59kTaF5oynAw8jmhV9ImI+RMiIADnZhjxolwRtAd/gzyoZ8J1FXrwuwAz8eAghWz4hTs6FVHGR45ogLy8c6qY+6uLFB9HykgFH+st+CvJHEzHRC472bmhGH7cjCJ4CqRNnGC0RHHl5fPzRj0Um+2HpMfU0tXoFfpFLGteUFwVkxLJcZIJIue7cX7y00C6Z8CLOBBobpMTs/LiuAefxQkFLRGYIiqlGPDvwLQUPXOKYlMP7gGO4D6kPQuKeZWkx2ir94v7lfuTFTN/pg04J1xYs8ZOt657iTuJFCwHSZ0YCyBq506F5cy9QR3SdkQF8GaWAAQHNmVgEZyYH8WC4+dVXwmQm7Lv51e1w73A96F+YRBY2PAu/+bffabn6Yrg/uW+4b3mRRRPQXEtGF92Uy2SjHWii7eYi9su5PNTc9NzsPFReeocAow9IAjexV1kgT14Sg1Sw4/Nif5nlMhHtQJsOLnKRmYRBq+ikoImhnb3MgtbR9Jd1ku01zowcXjXJ0qdBI1n69LJJljYuUxnoyTDsgthesXMxkYV5gOEatipCCjLcxVeQJbZM8LAKCRssQzcS1+G4jg0Tn1PshgyTWUwA+TGkIzkfw9AfffB+0IwgXuzCM5gmNHzC6M9wDLvqshIxEhM12Bg1vGRoTfu0h0M+dTJcRx4vjoAjMFgIDPRTDbmtPlE67sxqIEWM+thPsa8SWzMqh3mftB0DPzFKGaozgQEB4o6F0evq/EIgWGxRf775ZZjwYvLl93/8U7AzYiOjDcLOsTKHLLfYZrG9YZ/CfklWUFx1sP1hhyQzLHZPbGe//KtPIpH80xFwBAYIgYEm2nFFnmcyqTk7uhsmn/iNEZ5hIyTKTDYTRzApJgOImNn5JS2tRPtlQoKhHXUQl5aJEcwL6UwqrKIiuAaTBEzsMFxiP7O62FXRgiFlZppnNfGFTZCJEuyutM2EBeQM0WPTwq0prKAZoBvMu+IIOAID7nUAcfJHtgRm+CHY1hBx0dLCdjcCw31mUltLtC36hGCbM+pNEo3svMwURyvTIoKN6onkY0b+cI28jvfiCDgC7RG4TJNhA63RQnL8MXQ/qWAn7aQcJ1nOibZFn5AsBU2VQrtRwb2GEu2Ltkfy4crjxRFwBAYXAfc6GNxr6z1zBByBPkHAibZPLoSL4Qg4AoOLgBPt4F5b75kj4Aj0CQJOtH1yIVwMR8ARGFwEnGgH99p6zxwBR6BPEHCi7ZML4WI4Ao7A4CLgRDu419Z75gg4An2CgBNtn1wIF8MRcAQGFwEn2sG9tt4zR8AR6BMEnGj75EK4GI6AIzC4CHS2BvUS9p84AsQhiGIOXMIuuMiOwEAjwBJ0lrC3Llcf1A4PLNESwAWiJQ6tF0fAEeg/BMj5FpFt/0nXW4kGlmgjTXYY3pa9vSW8Nkfgu0Mgek6/uxZfTUtuo301uHurjoAjMOAI8BJhZE0ZWI12wK+hd88RcAT6HIEJBf4nFCvhUYeOaEnVTCFG7PH4sGddtyh492nH1JVb7HiWWtoiRU2vSy/rjQKWX0TG44HML1KHn+MIDCICPBuLi4vBBk3mlN6zQB+jdvvbZVtefWzzytc1oRQyV+dnragUMnmloIlsuaj7FSVMJLFilOeL5I1/uHXbMtr28w8/COf8+vef2V/++AdKcTNmt7751lbXNuzK3Iy99fpSyLTw1b0H9lDJHEmZ8/GH71uhVFbqm3yos9HQcEJxwSFh2i2VKzaazx16SKw+XTdy6y7MTodcZFml0inqfHKO3fz6nm0pNQ7n/vQH74UXBhe1pJTV5EK7//Cxfe/66+H4fC6rvlRVrymX2b5lQ760prXov/3P39ovf/ETu3n7rl2/dlUJIseDbPT/kdofV3qfkVxO8plB7HznE2Le2NoJV5n2FpSIEvlHJH9JqXp4gYGdF0dg2BFotT8PFdEWSqVAGIsixGUlRVx5/NR2lIkWzfbNa8oRps97y48CCcZj8ZAd92cfvmfTE+N247Ul++yL24FoIDzIGkKmQNiQzWNl3Z0cH9W+aXsgQv+7v/iZPVWOst/9+VYg5zFluX2i3xQyMpBaByJEW4bIZqc01ND2L0SmEO8dZeuNCPZAac3/+uc/tkKxJPJO27hynf3hi69sSrnMvtZxEPOsco/df/RYucmqoX3a40VC/TkR/uhIzn7xw+9Lpq1wzMMna7all8jvlXxyRueuaTsvoKebW6F/yPra4rz6tWlzU5OhLl4Mm9u7oZ+Q8V3hFRExfeXF8ulPPnSyDVfZ/3EEmggM3WRYUgkXIdZNaYV7Iq1f/Oj70hprgdAgtbKI720lYVxdWw/EB0ykEYeEMQ2g5UKGaaUFj95YnDOSl1asY9HwKDExH5prVefS1qc/+aGtSMOdFWG98+Zr9sHb14O2SB0//8H7tqpU6EWRdaFYDsQ+PjqqVOYbItKxkMGX45FhaWFOpDhp3z5cDcffvHM3vCSQB5/E63phrJAYUoRJRt7XryzY9aUr9uG7bwVyRbbP73wjjThhn9/+JpA25Lu+tR3SnkOai9Kk0dSvqS20U+qG9NH8P/rg3aC5o20jH+Wn3/+eCPehvf/Wm9LapdmqH14cAUfgOQKJX/3qV//6/Gf/fbuoHyzDaUisNS8YGujSwqxIaCxooykRyL9//mXQ9Oj5081NaadzgWiSiWTQ1N4QSdVVF4TGeZAOGmVdJIrWuaXst+ub20HrmxfJQq5ojrDoH7+8E8huQdrvZ7fu2JuqqzkkzzaH8SJ9NFA0xu+/fUND8m1b098bVxeD5jojDZcyPzMVzkNbXBaJQnAQISRca9QDuUdEycsCDRtTxRVl3MVcQRZfSBI8ZmQi2FVm308++jC8OLZ29qT9PlGbVw616xkZ8Xek6c5JbkwFHAMuSnUZTBNs39jeCe1Q59cPVsLLibYge7Til2GbDmD4PwODAH7uKD3nmStp7XzkhxuZ/Vr3vervEfcgG0lgY4VCgVFn3xUE5W9Umt1FCp3jQmZETqcVzAfYUtH25qYnXziM9ju9iCcd27qt9XtrQ1/dux/MElFyx9Z9fD/pvGgSipfE229cCyR8/Ljjv4/X2/q73bEn7eemQYOnCKagnTd/+b+OQGcIVLDp68Xcqgx1dmbzqH7OgsszCvfAHyWZLIeaaM9zUf1YR8AR6C0Cw0S0Q2ej7e2t4rU5Ao6AI9AeASfa9hj5EY6AI+AIdIXAULl3dYWUn/wKEcBe/7x5mb1UIgvx8+3+zRHoVwScaPv1ygyhXFWtriuV61YoN6xYaVilpghs8h/eP4iFzwgSFkrof0tqPJZJxy2fTthINqEFHUlLy23NiyPQbwg40fbbFRkqeQ5st1izjd2q7RQbVmV1dEyz0MxEJzIWT8UsKfU1rr+mFtsEB+0WH2H+KvUDK4iUV7dq0nrLIlqz8XzCpsfSNpZnhZprvkN1S/VpZ51o+/TCDLJYlWrDnmyVbXOvbrX95pLddCZr+XzLlIFItMVacAQOSDehfxQyGl4Wlz6/jfFv3i7VbW23Yql4yaZGkzY/mZXm65ruERD9x3eKwPM79Dtt1hsbRgSK5ZqtrJVtp7RvyVTacrlRG8EGwFIIsSr+uuct4YyW8xKqbySHJpsO5oaNYtWebBdsPBezpVmRedbjMJwXYz++ewScaLvH0Gtog0Cl1rDlpyXbKjSduCfGU2FAD7FehFzbNBdIG/KGw0dzGTvQX7lSty8elGxypGLX5nIKEOQabjscfX/vEHCi7R2WXtMJCDxaL9qjzbpSCmW0bBhtskmu59ddT6i8g00RkedkOshlRhVhrGaff1uwxamkXZ3Jd1CDH+IIdI+AE233GHoNJyBQ1szW3dWiVRrJsEQYu2pEeicc/tI3RSaGXEaxKjRj9mSnYtuFHbu+mA+/X7oA3sBQI9Ay+zDUOHjne4jAhkjsiwdFs3hOM//ZUHOLGbWHLZ2/qkiOIJfkQ871nfL5K/IzHIFzIOAa7TnA8kPbI7CyVpS2qGBA+ZFgI32VWuxZ0iJXWo64ycSI3V8rKTxmUZNlbko4CzPfd3EEXKO9OHZ+5hEEDuzbxwW5VcmPVWEig6ngyP7++4E5ATnHFd5xbTcW5MeG7MUR6DUCTrS9RnQY65N2eO9x0bbLyhohU0G/arGnXRrkHc1ngvz3ZFe+bPKf1i/f3j8IONH2z7W4tJJAsrsi2ZFs+tKSFOSK/LuVhDRb2Ze9OAI9RMCJtodgDmNVy08L0gQVb6BHJPtCtH2N7Y9vI5hypwHZz3NNIFv6QX8ePHWyPQ92fuzZCDjRno2P7z0DgTUto8UmGxYFiKS6LZDn1tZmINGEgsOQo21fWTJ2d3cC2RKNn79KpRzSg7A/+mN7L0owI2iBw9rugT1V/7w4Ar1AwL0OeoHiENZRVJStB+u1kJOsFzZNSLZWq9p//S//2X740cdK/1EIqLJAd2dn2yYmp21qesaePH5kW5vrNjM7r7xkKSuXS5ZSGnXpuPbp3/y9pZRMslt5OB/3r2UtthhRRLC8/rw4At0g4HdQN+gN6blEzfpGk0a5bO/coeJKVLly934g0//43W8sPzIaNNmFhSsi03LQYiHYb+/escWr12z5/j3LKZ16Lpe37e0tke+a/fTjT0W0aV2V7rVrLm0umwv9/OCNsRBBbEgvt3e7Bwh4zrAegDhsVdx/UrCtoia/cr2b/JJCKzKtWDaXs1s3/xRMBIW9Pbt+452gsZaKBZkU4goU0wjJ/BLxpglhfGLSyIaKZjs9PdtT2y1adqFUscn8vr0+PzJsl/ml93eYcoa5RvvSb6fBaoAIXGs7+zY+lut6iN6KDCbejEIl7jcO7L0PfhiCzrCfYTx/eS2AaBaMCZHGGtO+fcVRyNrY2ITti4R7WUK72Gt3CjY7XvPIX70Ed8jq8smwIbvg3Xb3vqJwZbNaVgsz9rhAbJAoE2CkiuePtM1s57P519wWfWcfZNtrkj3smuqnv/TbiyNwUQScaC+K3BCet71XVTaD+NCFGCSkIv2m/14cgYsg4ER7EdSG9JxlBe0eIb5r0Dy/axDwK8BswN93W+gv/ab/XhyBiyDgRHsR1IbwHHJ7lesxuVT1xl/1NAgDnSo/TTzkqIkHUm/sK+VNQ54HjVL45HeT7OPhuJiObZLwabV2v51+0/9dZWzw4gicFwGfDDsvYkN6/OpG2bKZzEuxzaKlxuVRsC/ATc0aAAAO4klEQVRba6WhGLb1Has2dqxxwOqsmnYf6AjZYvVfpNUeKDOuWUq5w/KWjo/JnDFh6UT+sJ7nE2Y9umDYatX/1Y2KfGxxIfPiCHSOgBNt51gN7ZEkPNwty9NAiQ4hu16VQJoi2Jo01UL1qUh2zWJxZbLVKq+ccnsl4kkRpxYj4Pslin1emAAjCy7pyItWq2/bdvVbO9hXEsbErI2k5yyVyIlrNZHWI3npdSaVtJ29koFHUn6/XhyBThFwou0UqSE+bkMZZck0C9/1yjzLcL9aVzCayrLVbd2ymnCa1Ox+PD4ZkG620yT11u/PLwNasEwMiaTiymYN5699mRTKtVXbKK9Y0mZsLHNN+/KSuTduX/Q/Jhw2hcfcpIjciyPQIQJOtB0CNcyHbezWlG+rN36zLDrAFWurdNdqB48tn0nZeGpc8OIT29RUz4c15zTPgLzzyguWzxxYpbZrW5XPLFVdtInsayLwhI7bP1/Vx45GvmwmrYwMJSfaY9j4z7MRcKI9G5+h39uQ/2qxciCzAZNg3ZkNIMJSbct2q18rT9e+jabHVGWTYLutO7pQzUkyDfOTZLrNWqm6ZmulDRtLv2W51GTX2i2TYjt7BzJZ7Mu04eaDCHf/PBsBv1POxmfo9xI8Rom7g9mgGzA00Led8rLt1W/ZRD5lufRI0ER7ZUM9Lhv1ounSDu3t1W6p/RXpzd3d8sF8ojrAxYsj0CkC3d11nbbix11aBHaLdU38dDvwidtm+a41YiuKGzAm0mYY35123CmgtEN7kyNjan85yKGskZ2efuJx4LFbcqI9ERzfeCIC3d1xJ1bpGwcJgYI0N2K+XpwYFWO2/LUlkus2mh0LWuarwAdep33kQJ6jXgydSwQO4FEo92aCrfOW/cjLjIAT7WW+et+B7OWaiOWCrkwM07fK90Rum89MBd+NFnsaLJAkpgTkQa6LmhHAo1LtbmLtNBl9+2Ai4EQ7mNe1J72CmGp1WWjjrT6snVXNcH2n8lCj9LW+INlI6ohsY5IL+ZDzvAU8qsKFurw4Ap0g4ETbCUpDekxdIQv3pfc1Fwx0DgIuXKXatlUPljVcZ9KrvwgJeUYkF/IhJ/Kep7DQgjVq4OPFEegEgfPdYZ3U6McMDAKEIsSWeV59Fj9ZXLjGlKGgzzj28NogF/Ih53lDLDY9D2Jy8XKiPQTUv5yJgBPtmfAM90545LxEyVB8u/xAfrINmRzaeyskZO88K7Ei2vRxjZrfx885fkwnVw75kHO7fP/cJgRw6TdNvZM++zGvBgEn2leD+6VoNSKSTjVadF+W1dYOVmWXZenr2RpfTLbOhyur9nD5YTM9jWbzk8lk87viHZBmvFQsKQC4YgtoO+TKX2GvYCsP5BMrwmV7XNtqtdrzc1XPcSI+CXDkQ05WqFXrSpXToe4e4dGufye16duGE4H2Ksdw4uK9BgHGyCpn02U4pPmPbJ3ELshrmSorvs46ExLdWN+wzz/7XLFf9u3//ebfbH5x3rY3ty2TzVhSAVw21zetWqlabiRvo2MjyrywbzfeuWGrD1ftzpd37N3337W6CHZ7e8eKhZISNWZCzrH1tXW7eu2qffLXf9GW7JETeXcrKzYz8q5Ebu+2dYjHM3xaEPCvjsCJCDjRngiLbwQBnA065xKlC1fMWALEELugnbbHyi3ItlatyUa6b6uPHtv62oaIdsvefOvNoK3evnXbXr/+upVLpZDeBoIdHRsNpIvGevNPN5UtV1lwt3aUUyxn976+Gwh2YnIiaL31er2tZoscLNUtVNaD/Mk4IRAPqfTUGwFcLuCMcWp9vmOwEXCiHezr21Xv4rBJm+F/1ADxZAvVx4rChTXqbG2Wcw5kAJ6cmrCPP/045AZ77eFrduPt68qEWw3kWVNm27/6209lDkgp+WJK1Hdgv/kfv7UrVxdtZm5GKccX7cnqE5tbmA/uZ6l02qrlilKQ5xRqERkO2pIscjRLLMiN/FO5NxR+sb1WS/0XcXuLWvTP4ULAiXa4rve5eotjfkxBt9tpp1TaDNq9rkhZnUf52hfZzsxOB5kWZDagDjRW2svKDBDZTKP2/+Gf/z4cy28IdVrnth4Te3ZuOEj/ROdFv0/75LhMKqeYtuuS4bXTDjvczvE4eCUDoR9u9i+OwKkIONGeCo3vQGNLJmIiH2lvZ9gQIDsyI1isrIhWRMhqP/SO0G26kEW/0BOfnauPw+/PdrfWG31vPSba9ry2zr8RZDwW21Nmh5KCh+tlEclxQhXgAS6u0Z4Ajm86EQH3OjgRFt8YIZBNdeCYL7MB6WfSyct9O6Ukf0XZGmR7iLp/4icLFcDFiyPQKQJn31Gd1uLHDSwC+UzC6vXGmZNiUA45vtKyp55Dme0rzJAb+enHWRSKYg8e4OLFEegUASfaTpEa0uNGc0nFOyAk4On0w1CaRIoMvxnwX86iyTPJ3ziQh8OZbwt5VwgPcPHiCHSKgBNtp0gN6XGBUNrMwpOT60COXc0U4ZcXqKb8NWnlbbwOtN+J9vJe51chuRPtq0D9ErVJ6hal9ZIWd3pYQNyhtPI/+L5eoq69IGpzGe++NNrTiRYcMlJmwcWLI9ApAk60nSI1xMdNjaYUf7V2CpHi6CQSlhvYWeaFi8KHTZSlusxPPf/T79MtGRdtqil/TCnKQxLHFxuAiMFhaszNBl2APJSn+h0zlJf9fJ2eGUvb6qbctyxz8oni2Mif9eQDzr8VUm1odr9eaFi9JPKrqo5nXB7T4q1kLm6pPOnGRfSnK9vnbrhdP+qNms2M589dr58w3Ag40Q739e+o91mNlXNpgoA3Ts62IOWvV1NggWBr+1Z+IlPEbsLSsbzlkmllRUgEzRZf2UaxYdWdqpUOyop1WLfsjILIaEVaLwg39ONFZTbgVFX/s0m5dqX9senoxvGDDhHwO+YQCv9yFgILkxn7dq1qE6PHV36xSkok1yaIzFl1H+6TFlve0mTUWsrG0xOWmdDqsEPjlpYQoDkHElQWXcuKWMetomW3e/d3LTZTs8ykjMldabe0gU5Lo0dfHZgNSuWqvTF7ilZ/2An/4gi8iMDhbfziLt/iCDxHYGo8I/qpnxjsOh7T+1oE1c3KLLGbtNi6pTfGbHZ81rJ5Edqz5b/UG3lc8dn8DetKu9Rxs2Oz4TzOp56LliC/+hH6c6wSgnzTf3Dw4gicFwEn2vMiNqTHswR3cSpthVLlhUkxAsrEYpkzZ+vPhE13YUkkmS9O2Ni4Yh10GF+BOgPp6njO4/zSk9qFs4kH7wn1g/60FrRZ+n1F/T9rKXLrOf7dEWhF4Ogd1brHvzsCxxCYn8paIlYLgbhbd0FEydiIcmidvbCh9ZzoO5xW2axZtiCifMEsER3V/hPC5fxsYSzUd4wr21cgVRj56Qf9aS0EHk/E6jan/ntxBC6CgBPtRVAb0nPQ5q7NZG3vmFZLAJZ0clzLV6vPbKidA1TXxNfBesrGRptRuzo/88UjIdsxInipPuo9T4FbkT+dUCzdFvsspLtXKqvfrs2eB08/9igCTrRH8fBfbRCYlo1yJL0vf9L6oTkUgsuIoGootOcoQZtd13LW9NiFh/svNCfCpL6K6j2vVov8Wb0w6A8Fvbasfo7I42J63LXZAIr/cyEEnGgvBNtwn3R9MS+iLbdM8EujTYiIDvKaLJONtMPCkNx2lSBRsWcjcuvw1FMPox7qo97GGavZjleA3DHJn6IfzzRadOKq+kl/vTgC3SDgRNsNekN6bjqVsNdm07ZXLD+3Z2qInUvOWUnEdNzGeRJMDNXrRS1njYnYUB17WVQf9bLQgXbaFeQtS+6s5I9OCCYD9Y9+0l8vjkA3CDjRdoPeEJ87O5G16RGzgnxLISUCseRTs1atYeHswD6qcyDadIocXUdLpN0m4mTFTVkqlVKQ7WZW3JAlN9HMlPt834u3MfVSf0ScR1s4+gt5K5Ib+ekH/SmqX9NSZOmnF0egWwR8wUK3CA7x+a/P5+2r5T1pg3Gtlkpo2J22VHxev9e1kmykjTlAhCwrA0kWo8knlgrU6lX7X7/9dSC7qcnpsJ8UNysPl21yYspmZ2YD4uVyKdRfVRbc62/cCNujbA3UF+oNVoyjCw+OXy5ItVQtBrmRX+vOgl02Ha/Z6wujxw/3347AhRBwor0QbH4SCEBSb10dsa9WCtJks9JOYzaeWbKN8lNlIECrbTNuR+FUrILWwjzU5tZGiAn7+a0/29b2lr194x3b29uzL29/aTs7W3bj+tv2zd07dv3NG/bNvW/sP/3Tv9jC/ELIphvVhWzizLaFADLl6r5NZ5eCJl6Vt0LsoGJvLb3o5tW2Mj/AETgFASfaU4DxzZ0hQALHd67m7fbDYiDbTDpjmfiSFasrNpIZO1ur1Yg/MhPQWqSJ/t0v/1Gmgrg9fLQS9s/Pzduj1Uc2PTUdMuaio/7owx/b1cWrtra+ZlevLCnrwVGXh1DvixaFI52CjAuVvSBvKpkJkbkO9ivqz8jJMR2OnO0/HIHOEXCi7RwrP/IUBIjNGsh2pWjlyoFN5Jbsyd664rZWlbUAG+xJw3cZCrSrUWqYDA6BZKkegp2cmAwtRZ+YBOZnpbG2RI25/sb1QLrzcwtN8n3mksWJmCAaDdlac81fp7Vfl98smvj8yJLkVngwSHZJngeXPPdZAM//6SsE2rzz+0pWF6aPEYBs3702YgmrhImkqZyG+5pQOjXKi4iRUIfVGsccLRArf2ip/PG9VmdFWuPwrybbbHRMq1Yc1US91C+VONp07HM/yDeVfScEi0Fu5PeA3sdg8p89QcCJticweiUggBnh3WujNpapWbksd6/EDZFZ4cSJf/gvmVfWWYU6bFFUewIk9VVVL/FqT+JZzLfIhXzlStxGM/UgN/J7cQReBgJ+Z70MVIe4Tuyeby6O2tK02KyusXvjqhUrxRPJFs8A4slWji3p7QY+2id04oHqjZ9AnJAs8iAX8i1NmeT1ia9uMPdz2yPgRNseIz/iAgjMTWbtvWtZi9XHrVialJ9qKXgptFZ1oNCDmemEFap7J5tRWw/u9Ls05TDBpXqpv7VAwmXJUSxNBLmQDzm9OAIvG4H/D0wYafK+zfemAAAAAElFTkSuQmCC;" vertex="1" parent="Gpy_rr_q-T0_uG4rBkW2-9">
          <mxGeometry y="20" width="246.19" height="148" as="geometry" />
        </mxCell>
      </root>
    </mxGraphModel>
  </diagram>
</mxfile>
